<svg width="100%" height="40" viewBox="0 0 700 30" xmlns="http://www.w3.org/2000/svg">
<style>
.cell { rx: 2; ry: 2; width: 10px; height: 10px; animation: flicker infinite alternate; }
.d1 { animation-delay: 3.83s; animation-duration: 4.17s; }
.d2 { animation-delay: 0.36s; animation-duration: 2.60s; }
.d3 { animation-delay: 2.01s; animation-duration: 4.57s; }
.d4 { animation-delay: 3.05s; animation-duration: 3.67s; }
.d5 { animation-delay: 2.91s; animation-duration: 4.24s; }
.d6 { animation-delay: 2.07s; animation-duration: 2.76s; }
.d7 { animation-delay: 3.31s; animation-duration: 2.67s; }
.d8 { animation-delay: 2.19s; animation-duration: 3.98s; }
.d9 { animation-delay: 2.30s; animation-duration: 3.41s; }
.d10 { animation-delay: 3.73s; animation-duration: 3.05s; }
.d11 { animation-delay: 1.29s; animation-duration: 4.67s; }
.d12 { animation-delay: 1.26s; animation-duration: 3.80s; }
.d13 { animation-delay: 0.76s; animation-duration: 4.64s; }
.d14 { animation-delay: 1.62s; animation-duration: 4.55s; }
.d15 { animation-delay: 2.59s; animation-duration: 3.87s; }
.d16 { animation-delay: 2.30s; animation-duration: 4.86s; }
.d17 { animation-delay: 2.48s; animation-duration: 2.53s; }
.d18 { animation-delay: 0.37s; animation-duration: 3.45s; }
.d19 { animation-delay: 0.44s; animation-duration: 3.92s; }
.d20 { animation-delay: 1.19s; animation-duration: 2.72s; }

@keyframes flicker {
  0%, 15% { fill: #161b22; }
  35% { fill: #0e4429; }
  50% { fill: #006d32; }
  75% { fill: #26a641; }
  90%, 100% { fill: #39d353; }
}
@media (prefers-color-scheme: light) {
  @keyframes flicker {
    0%, 15% { fill: #ebedf0; }
    35% { fill: #9be9a8; }
    50% { fill: #40c463; }
    75% { fill: #30a14e; }
    90%, 100% { fill: #216e39; }
  }
}
</style>
<rect x="0" y="0" class="cell d18" />
<rect x="14" y="0" class="cell d17" />
<rect x="28" y="0" class="cell d8" />
<rect x="42" y="0" class="cell d7" />
<rect x="56" y="0" class="cell d15" />
<rect x="70" y="0" class="cell d1" />
<rect x="84" y="0" class="cell d3" />
<rect x="98" y="0" class="cell d3" />
<rect x="112" y="0" class="cell d15" />
<rect x="126" y="0" class="cell d19" />
<rect x="140" y="0" class="cell d8" />
<rect x="154" y="0" class="cell d3" />
<rect x="168" y="0" class="cell d4" />
<rect x="182" y="0" class="cell d12" />
<rect x="196" y="0" class="cell d4" />
<rect x="210" y="0" class="cell d14" />
<rect x="224" y="0" class="cell d11" />
<rect x="238" y="0" class="cell d15" />
<rect x="252" y="0" class="cell d9" />
<rect x="266" y="0" class="cell d12" />
<rect x="280" y="0" class="cell d9" />
<rect x="294" y="0" class="cell d6" />
<rect x="308" y="0" class="cell d7" />
<rect x="322" y="0" class="cell d17" />
<rect x="336" y="0" class="cell d1" />
<rect x="350" y="0" class="cell d1" />
<rect x="364" y="0" class="cell d3" />
<rect x="378" y="0" class="cell d18" />
<rect x="392" y="0" class="cell d15" />
<rect x="406" y="0" class="cell d15" />
<rect x="420" y="0" class="cell d6" />
<rect x="434" y="0" class="cell d10" />
<rect x="448" y="0" class="cell d9" />
<rect x="462" y="0" class="cell d5" />
<rect x="476" y="0" class="cell d9" />
<rect x="490" y="0" class="cell d8" />
<rect x="504" y="0" class="cell d8" />
<rect x="518" y="0" class="cell d3" />
<rect x="532" y="0" class="cell d3" />
<rect x="546" y="0" class="cell d20" />
<rect x="560" y="0" class="cell d14" />
<rect x="574" y="0" class="cell d18" />
<rect x="588" y="0" class="cell d1" />
<rect x="602" y="0" class="cell d18" />
<rect x="616" y="0" class="cell d3" />
<rect x="630" y="0" class="cell d14" />
<rect x="644" y="0" class="cell d20" />
<rect x="658" y="0" class="cell d11" />
<rect x="672" y="0" class="cell d2" />
<rect x="686" y="0" class="cell d6" />
<rect x="0" y="14" class="cell d13" />
<rect x="14" y="14" class="cell d19" />
<rect x="28" y="14" class="cell d5" />
<rect x="42" y="14" class="cell d12" />
<rect x="56" y="14" class="cell d2" />
<rect x="70" y="14" class="cell d2" />
<rect x="84" y="14" class="cell d1" />
<rect x="98" y="14" class="cell d13" />
<rect x="112" y="14" class="cell d11" />
<rect x="126" y="14" class="cell d15" />
<rect x="140" y="14" class="cell d12" />
<rect x="154" y="14" class="cell d7" />
<rect x="168" y="14" class="cell d8" />
<rect x="182" y="14" class="cell d2" />
<rect x="196" y="14" class="cell d13" />
<rect x="210" y="14" class="cell d6" />
<rect x="224" y="14" class="cell d12" />
<rect x="238" y="14" class="cell d7" />
<rect x="252" y="14" class="cell d19" />
<rect x="266" y="14" class="cell d20" />
<rect x="280" y="14" class="cell d18" />
<rect x="294" y="14" class="cell d17" />
<rect x="308" y="14" class="cell d13" />
<rect x="322" y="14" class="cell d13" />
<rect x="336" y="14" class="cell d14" />
<rect x="350" y="14" class="cell d6" />
<rect x="364" y="14" class="cell d7" />
<rect x="378" y="14" class="cell d9" />
<rect x="392" y="14" class="cell d6" />
<rect x="406" y="14" class="cell d15" />
<rect x="420" y="14" class="cell d18" />
<rect x="434" y="14" class="cell d4" />
<rect x="448" y="14" class="cell d4" />
<rect x="462" y="14" class="cell d4" />
<rect x="476" y="14" class="cell d11" />
<rect x="490" y="14" class="cell d12" />
<rect x="504" y="14" class="cell d19" />
<rect x="518" y="14" class="cell d12" />
<rect x="532" y="14" class="cell d7" />
<rect x="546" y="14" class="cell d12" />
<rect x="560" y="14" class="cell d4" />
<rect x="574" y="14" class="cell d11" />
<rect x="588" y="14" class="cell d17" />
<rect x="602" y="14" class="cell d14" />
<rect x="616" y="14" class="cell d2" />
<rect x="630" y="14" class="cell d16" />
<rect x="644" y="14" class="cell d18" />
<rect x="658" y="14" class="cell d12" />
<rect x="672" y="14" class="cell d13" />
<rect x="686" y="14" class="cell d20" />
</svg>
