<svg width="900" height="410" viewBox="0 0 900 410" xmlns="http://www.w3.org/2000/svg">
  <defs>
    <linearGradient id="bgGrad" x1="0" y1="0" x2="900" y2="410" gradientUnits="userSpaceOnUse">
      <stop offset="0%" stop-color="#0d1117"/>
      <stop offset="55%" stop-color="#12161f"/>
      <stop offset="100%" stop-color="#161b22"/>
    </linearGradient>

    <path id="skyPath" d="M 70,90 Q 450,-20 830,90" fill="none"/>
    <path id="circuitPath" d="M 100,315 L 780,315" fill="none"/>

    <filter id="softGlow" x="-60%" y="-60%" width="220%" height="220%">
      <feGaussianBlur stdDeviation="4" result="blur"/>
      <feMerge>
        <feMergeNode in="blur"/>
        <feMergeNode in="SourceGraphic"/>
      </feMerge>
    </filter>

    <pattern id="grid" width="40" height="40" patternUnits="userSpaceOnUse">
      <path d="M 40 0 L 0 0 0 40" fill="none" stroke="#ffffff" stroke-width="0.5" opacity="0.4"/>
    </pattern>
  </defs>

  <style>
    <![CDATA[
      .card-bg { fill: url(#bgGrad); }
      .grid { fill: url(#grid); opacity: .05; }

      .star { fill: #ffffff; opacity: .15; animation: twinkle 3.5s ease-in-out infinite; }
      @keyframes twinkle { 0%,100% { opacity:.08; } 50% { opacity:.6; } }

      .shooter { animation: shoot 6s linear infinite; }
      .shooter-line { stroke: #ffffff; stroke-width: 1.5; opacity: 0; }
      @keyframes shoot {
        0%   { transform: translate(0,0);      opacity: 0; }
        2%   { opacity: 1; }
        14%  { transform: translate(220px,110px); opacity: 0; }
        100% { transform: translate(220px,110px); opacity: 0; }
      }

      .title-underline { stroke-dasharray: 260; stroke-dashoffset: 260; animation: sweep 2.2s ease-out .3s forwards; }
      @keyframes sweep { to { stroke-dashoffset: 0; } }

      .title { font-family: 'Segoe UI', Verdana, sans-serif; font-weight: 800; font-size: 27px; fill: #e6edf3; letter-spacing: 1.5px; }
      .subtitle { font-family: 'Segoe UI', Verdana, sans-serif; font-size: 12px; fill: #8b949e; letter-spacing: 3px; }

      .orbiter { fill: #ffd25a; animation: glowPulse 2.4s ease-in-out infinite; }
      @keyframes glowPulse { 0%,100% { filter: drop-shadow(0 0 2px #ffd25a); } 50% { filter: drop-shadow(0 0 11px #ffe9a8); } }
      .trail { fill: #ffd25a; }

      .track { fill: none; stroke: #21262d; stroke-width: 10; }

      .ring { fill: none; stroke-width: 10; stroke-linecap: round; transform-origin: center; transform: rotate(-90deg);
              stroke-dasharray: 439.8; stroke-dashoffset: 439.8;
              animation-timing-function: cubic-bezier(.22,1,.36,1); animation-fill-mode: forwards; }

      .ring-morning { stroke: #ffa500; animation-name: drawMorning; animation-duration: 1.8s; animation-delay: .1s; }
      @keyframes drawMorning { to { stroke-dashoffset: 304.9; } }

      .ring-day { stroke: #1e90ff; animation-name: drawDay; animation-duration: 1.8s; animation-delay: .3s; }
      @keyframes drawDay { to { stroke-dashoffset: 329.1; } }

      .ring-evening { stroke: #9370db; animation-name: drawEvening; animation-duration: 1.8s; animation-delay: .5s; }
      @keyframes drawEvening { to { stroke-dashoffset: 343.2; } }

      .ring-night { stroke: #4169e1; animation-name: drawNight; animation-duration: 1.8s; animation-delay: .7s; }
      @keyframes drawNight { to { stroke-dashoffset: 341.9; } }

      /* rotating halo badge behind each icon */
      .halo { fill: none; stroke-width: 1.2; stroke-dasharray: 3 6; opacity: .35; transform-origin: center; animation: spin 18s linear infinite; }
      @keyframes spin { to { transform: rotate(360deg); } }

      .icon-wrap { animation: popIn .5s cubic-bezier(.34,1.56,.64,1) backwards; }
      @keyframes popIn { 0% { transform: scale(0) rotate(-15deg); opacity: 0; } 100% { transform: scale(1) rotate(0); opacity: 1; } }
      .icon-line { fill: none; stroke-linecap: round; stroke-linejoin: round; stroke-width: 2.2; }

      .label { font-family: 'Segoe UI', Verdana, sans-serif; font-size: 13px; font-weight: 700; fill: #c9d1d9; text-anchor: middle; letter-spacing: .5px; }
      .pct { font-family: 'Segoe UI', Verdana, sans-serif; font-size: 21px; font-weight: 800; text-anchor: middle; opacity: 0; animation: fadeIn .6s ease forwards; animation-delay: 1.6s; }
      .mood { font-family: 'Segoe UI', Verdana, sans-serif; font-size: 11px; fill: #6e7681; text-anchor: middle; opacity: 0; animation: fadeIn .6s ease forwards; animation-delay: 1.8s; }
      @keyframes fadeIn { to { opacity: 1; } }

      .particle { animation: floatUp 4.5s ease-in infinite; }
      @keyframes floatUp { 0% { transform: translateY(0); opacity: 0; } 15% { opacity: .85; } 100% { transform: translateY(-42px); opacity: 0; } }

      .baseline { stroke: #21262d; stroke-width: 1; stroke-dasharray: 4 4; }

      /* circuit trace connecting the four rings */
      .circuit-line { stroke: #21262d; stroke-width: 1.5; }
      .stem { stroke-width: 1.5; stroke-dasharray: 15; stroke-dashoffset: 15; animation: stemDraw .5s ease forwards; }
      @keyframes stemDraw { to { stroke-dashoffset: 0; } }

      .node { stroke: none; }
      .ping { fill: none; stroke-width: 1.5; transform-origin: center; animation: ping 6s ease-out infinite; }
      @keyframes ping { 0% { transform: scale(1); opacity: .7; } 12% { transform: scale(2.4); opacity: 0; } 100% { transform: scale(2.4); opacity: 0; } }

      .pulse-dot { filter: url(#softGlow); }

      /* commit sparkline footer */
      .bar { animation: barPulse 3.6s ease-in-out infinite; }
      @keyframes barPulse { 0%,100% { transform: scaleY(1); opacity: .85; } 50% { transform: scaleY(1.35); opacity: 1; } }

      .footer { font-family: 'Segoe UI', Verdana, sans-serif; font-size: 10px; fill: #484f58; letter-spacing: 2px; animation: footerPulse 4s ease-in-out infinite; }
      @keyframes footerPulse { 0%,100% { opacity: .6; } 50% { opacity: 1; } }
    ]]>
  </style>

  <rect class="card-bg" width="900" height="410" rx="20"/>
  <rect class="grid" width="900" height="410" rx="20"/>

  <!-- scattered stars -->
  <circle class="star" cx="40" cy="40" r="1.4" style="animation-delay:.2s"/>
  <circle class="star" cx="120" cy="25" r="1" style="animation-delay:.9s"/>
  <circle class="star" cx="820" cy="35" r="1.4" style="animation-delay:.4s"/>
  <circle class="star" cx="860" cy="70" r="1" style="animation-delay:1.3s"/>
  <circle class="star" cx="740" cy="20" r="1" style="animation-delay:.6s"/>
  <circle class="star" cx="200" cy="15" r="1" style="animation-delay:1.6s"/>
  <circle class="star" cx="450" cy="10" r="1" style="animation-delay:2s"/>
  <circle class="star" cx="620" cy="45" r="1" style="animation-delay:2.4s"/>

  <!-- occasional shooting star -->
  <g class="shooter" transform="translate(90,10)">
    <line class="shooter-line" x1="0" y1="0" x2="-24" y2="-10"/>
  </g>

  <!-- title -->
  <text x="450" y="42" text-anchor="middle" class="title">My Coding Journey</text>
  <line x1="320" y1="54" x2="580" y2="54" stroke="#30363d" stroke-width="2"/>
  <line class="title-underline" x1="320" y1="54" x2="580" y2="54" stroke="#ffa500" stroke-width="2"/>
  <text x="450" y="74" text-anchor="middle" class="subtitle">A DAY IN THE LIFE OF MY COMMITS</text>

  <!-- sky arc + orbiting sun with trail -->
  <path d="M 70,100 Q 450,-10 830,100" fill="none" stroke="#30363d" stroke-width="1.5" stroke-dasharray="2 6" opacity=".6"/>
  <circle r="4" class="trail" opacity=".15">
    <animateMotion dur="9s" repeatCount="indefinite" begin="-0.3s"><mpath href="#skyPath"/></animateMotion>
  </circle>
  <circle r="6" class="trail" opacity=".3">
    <animateMotion dur="9s" repeatCount="indefinite" begin="-0.15s"><mpath href="#skyPath"/></animateMotion>
  </circle>
  <circle r="9" class="orbiter">
    <animateMotion dur="9s" repeatCount="indefinite"><mpath href="#skyPath"/></animateMotion>
  </circle>

  <line x1="70" y1="140" x2="830" y2="140" class="baseline"/>

  <!-- MORNING -->
  <g transform="translate(140,230)">
    <circle class="particle" cx="-58" cy="10" r="2" fill="#ffa500" style="animation-delay:.2s"/>
    <circle class="particle" cx="55" cy="30" r="1.6" fill="#ffbf47" style="animation-delay:1.4s"/>
    <circle class="particle" cx="-40" cy="-55" r="1.6" fill="#ffa500" style="animation-delay:2.4s"/>
    <circle class="track" r="70"/>
    <circle class="ring ring-morning" r="70" filter="url(#softGlow)"/>
    <circle class="halo" r="27" stroke="#ffa500" style="animation-delay:.3s"/>
    <g class="icon-wrap" style="animation-delay:.1s" transform="translate(0,-6)">
      <g class="icon-line" stroke="#ffa500">
        <line x1="-14" y1="6" x2="14" y2="6"/>
        <path d="M -9,6 A9,9 0 0 1 9,6"/>
        <line x1="0" y1="-14" x2="0" y2="-4"/>
        <path d="M -4,-8 L 0,-14 L 4,-8"/>
        <line x1="-16" y1="-1" x2="-13" y2="2"/>
        <line x1="16" y1="-1" x2="13" y2="2"/>
      </g>
    </g>
    <text class="pct" y="52" fill="#ffa500">30.65%</text>
    <text class="label" y="-92">MORNING</text>
    <text class="mood" y="90">Happy &amp; fresh</text>
  </g>

  <!-- DAYTIME -->
  <g transform="translate(340,230)">
    <circle class="particle" cx="-58" cy="10" r="2" fill="#1e90ff" style="animation-delay:.6s"/>
    <circle class="particle" cx="55" cy="30" r="1.6" fill="#4fa8ff" style="animation-delay:1.8s"/>
    <circle class="particle" cx="-40" cy="-55" r="1.6" fill="#1e90ff" style="animation-delay:2.8s"/>
    <circle class="track" r="70"/>
    <circle class="ring ring-day" r="70" filter="url(#softGlow)"/>
    <circle class="halo" r="27" stroke="#1e90ff" style="animation-delay:.5s"/>
    <g class="icon-wrap" style="animation-delay:.3s" transform="translate(0,-6)">
      <g class="icon-line" stroke="#1e90ff">
        <circle cx="0" cy="0" r="7" fill="none"/>
        <line x1="0" y1="-16" x2="0" y2="-11"/>
        <line x1="0" y1="11" x2="0" y2="16"/>
        <line x1="-16" y1="0" x2="-11" y2="0"/>
        <line x1="11" y1="0" x2="16" y2="0"/>
        <line x1="-11.3" y1="-11.3" x2="-7.8" y2="-7.8"/>
        <line x1="7.8" y1="7.8" x2="11.3" y2="11.3"/>
        <line x1="-11.3" y1="11.3" x2="-7.8" y2="7.8"/>
        <line x1="7.8" y1="-7.8" x2="11.3" y2="-11.3"/>
      </g>
    </g>
    <text class="pct" y="52" fill="#1e90ff">25.16%</text>
    <text class="label" y="-92">DAYTIME</text>
    <text class="mood" y="90">Locked in focus</text>
  </g>

  <!-- EVENING -->
  <g transform="translate(540,230)">
    <circle class="particle" cx="-58" cy="10" r="2" fill="#9370db" style="animation-delay:1s"/>
    <circle class="particle" cx="55" cy="30" r="1.6" fill="#a98ee6" style="animation-delay:2.2s"/>
    <circle class="particle" cx="-40" cy="-55" r="1.6" fill="#9370db" style="animation-delay:3.2s"/>
    <circle class="track" r="70"/>
    <circle class="ring ring-evening" r="70" filter="url(#softGlow)"/>
    <circle class="halo" r="27" stroke="#9370db" style="animation-delay:.7s"/>
    <g class="icon-wrap" style="animation-delay:.5s" transform="translate(0,-6)">
      <g class="icon-line" stroke="#9370db">
        <line x1="-14" y1="6" x2="14" y2="6"/>
        <path d="M -9,6 A9,9 0 0 1 9,6"/>
        <line x1="0" y1="-4" x2="0" y2="-14"/>
        <path d="M -4,-10 L 0,-4 L 4,-10"/>
        <line x1="-16" y1="-1" x2="-13" y2="2"/>
        <line x1="16" y1="-1" x2="13" y2="2"/>
      </g>
    </g>
    <text class="pct" y="52" fill="#9370db">21.94%</text>
    <text class="label" y="-92">EVENING</text>
    <text class="mood" y="90">Bursts of hype</text>
  </g>

  <!-- NIGHT -->
  <g transform="translate(740,230)">
    <circle class="particle" cx="-58" cy="10" r="2" fill="#4169e1" style="animation-delay:1.4s"/>
    <circle class="particle" cx="55" cy="30" r="1.6" fill="#6f8fe8" style="animation-delay:2.6s"/>
    <circle class="particle" cx="-40" cy="-55" r="1.6" fill="#4169e1" style="animation-delay:3.6s"/>
    <circle class="track" r="70"/>
    <circle class="ring ring-night" r="70" filter="url(#softGlow)"/>
    <circle class="halo" r="27" stroke="#4169e1" style="animation-delay:.9s"/>
    <g class="icon-wrap" style="animation-delay:.7s" transform="translate(0,-6)">
      <path class="icon-line" stroke="#4169e1" fill="#4169e1" d="M 6,-10 A10,10 0 1 0 6,10 A7.5,7.5 0 1 1 6,-10 Z"/>
    </g>
    <text class="pct" y="52" fill="#4169e1">22.26%</text>
    <text class="label" y="-92">NIGHT</text>
    <text class="mood" y="90">In the zone</text>
  </g>

  <!-- circuit trace linking the four rings, with a data pulse traveling through the whole day -->
  <line x1="100" y1="315" x2="780" y2="315" class="circuit-line"/>
  <line class="stem" x1="140" y1="300" x2="140" y2="315" stroke="#ffa500" style="animation-delay:1.9s"/>
  <line class="stem" x1="340" y1="300" x2="340" y2="315" stroke="#1e90ff" style="animation-delay:2.1s"/>
  <line class="stem" x1="540" y1="300" x2="540" y2="315" stroke="#9370db" style="animation-delay:2.3s"/>
  <line class="stem" x1="740" y1="300" x2="740" y2="315" stroke="#4169e1" style="animation-delay:2.5s"/>

  <circle class="node" cx="140" cy="315" r="3" fill="#ffa500"/>
  <circle class="ping" cx="140" cy="315" r="3" stroke="#ffa500" style="animation-delay:.35s"/>
  <circle class="node" cx="340" cy="315" r="3" fill="#1e90ff"/>
  <circle class="ping" cx="340" cy="315" r="3" stroke="#1e90ff" style="animation-delay:2.12s"/>
  <circle class="node" cx="540" cy="315" r="3" fill="#9370db"/>
  <circle class="ping" cx="540" cy="315" r="3" stroke="#9370db" style="animation-delay:3.88s"/>
  <circle class="node" cx="740" cy="315" r="3" fill="#4169e1"/>
  <circle class="ping" cx="740" cy="315" r="3" stroke="#4169e1" style="animation-delay:5.65s"/>

  <circle r="4" class="pulse-dot" fill="#ffa500">
    <animateMotion dur="6s" repeatCount="indefinite"><mpath href="#circuitPath"/></animateMotion>
    <animate attributeName="fill" dur="6s" repeatCount="indefinite"
      keyTimes="0;0.059;0.15;0.353;0.45;0.647;0.75;0.941;1"
      values="#ffa500;#ffa500;#ffb85c;#1e90ff;#1e90ff;#9370db;#9370db;#4169e1;#4169e1"/>
  </circle>

  <!-- commit rhythm sparkline -->
<rect class="bar" x="66.0" y="358.1" width="8" height="13.9" rx="1.5" fill="#ffa500" style="animation-delay:0.0s; transform-origin:70.0px 372px;"/>
    <rect class="bar" x="80.0" y="354.8" width="8" height="17.2" rx="1.5" fill="#ffa500" style="animation-delay:0.045s; transform-origin:84.0px 372px;"/>
    <rect class="bar" x="94.0" y="344.1" width="8" height="27.9" rx="1.5" fill="#ffa500" style="animation-delay:0.09s; transform-origin:98.0px 372px;"/>
    <rect class="bar" x="108.0" y="352.4" width="8" height="19.6" rx="1.5" fill="#ffa500" style="animation-delay:0.135s; transform-origin:112.0px 372px;"/>
    <rect class="bar" x="122.0" y="348.7" width="8" height="23.3" rx="1.5" fill="#ffa500" style="animation-delay:0.18s; transform-origin:126.0px 372px;"/>
    <rect class="bar" x="136.0" y="356.3" width="8" height="15.7" rx="1.5" fill="#ffa500" style="animation-delay:0.225s; transform-origin:140.0px 372px;"/>
    <rect class="bar" x="150.0" y="364.0" width="8" height="8.0" rx="1.5" fill="#ffa500" style="animation-delay:0.27s; transform-origin:154.0px 372px;"/>
    <rect class="bar" x="164.0" y="365.9" width="8" height="6.1" rx="1.5" fill="#ffa500" style="animation-delay:0.315s; transform-origin:168.0px 372px;"/>
    <rect class="bar" x="178.0" y="366.0" width="8" height="6.0" rx="1.5" fill="#ffa500" style="animation-delay:0.36s; transform-origin:182.0px 372px;"/>
    <rect class="bar" x="192.0" y="365.2" width="8" height="6.8" rx="1.5" fill="#ffa500" style="animation-delay:0.405s; transform-origin:196.0px 372px;"/>
    <rect class="bar" x="206.0" y="362.6" width="8" height="9.4" rx="1.5" fill="#ffa500" style="animation-delay:0.45s; transform-origin:210.0px 372px;"/>
    <rect class="bar" x="220.0" y="357.6" width="8" height="14.4" rx="1.5" fill="#ffa500" style="animation-delay:0.495s; transform-origin:224.0px 372px;"/>
    <rect class="bar" x="234.0" y="348.9" width="8" height="23.1" rx="1.5" fill="#ffa500" style="animation-delay:0.54s; transform-origin:238.0px 372px;"/>
    <rect class="bar" x="248.0" y="340.7" width="8" height="31.3" rx="1.5" fill="#ffa500" style="animation-delay:0.585s; transform-origin:252.0px 372px;"/>
    <rect class="bar" x="262.0" y="365.2" width="8" height="6.8" rx="1.5" fill="#1e90ff" style="animation-delay:0.63s; transform-origin:266.0px 372px;"/>
    <rect class="bar" x="276.0" y="366.0" width="8" height="6.0" rx="1.5" fill="#1e90ff" style="animation-delay:0.675s; transform-origin:280.0px 372px;"/>
    <rect class="bar" x="290.0" y="366.0" width="8" height="6.0" rx="1.5" fill="#1e90ff" style="animation-delay:0.72s; transform-origin:294.0px 372px;"/>
    <rect class="bar" x="304.0" y="360.9" width="8" height="11.1" rx="1.5" fill="#1e90ff" style="animation-delay:0.765s; transform-origin:308.0px 372px;"/>
    <rect class="bar" x="318.0" y="356.6" width="8" height="15.4" rx="1.5" fill="#1e90ff" style="animation-delay:0.81s; transform-origin:322.0px 372px;"/>
    <rect class="bar" x="332.0" y="352.2" width="8" height="19.8" rx="1.5" fill="#1e90ff" style="animation-delay:0.855s; transform-origin:336.0px 372px;"/>
    <rect class="bar" x="346.0" y="339.7" width="8" height="32.3" rx="1.5" fill="#1e90ff" style="animation-delay:0.9s; transform-origin:350.0px 372px;"/>
    <rect class="bar" x="360.0" y="352.7" width="8" height="19.3" rx="1.5" fill="#1e90ff" style="animation-delay:0.945s; transform-origin:364.0px 372px;"/>
    <rect class="bar" x="374.0" y="343.8" width="8" height="28.2" rx="1.5" fill="#1e90ff" style="animation-delay:0.99s; transform-origin:378.0px 372px;"/>
    <rect class="bar" x="388.0" y="356.4" width="8" height="15.6" rx="1.5" fill="#1e90ff" style="animation-delay:1.035s; transform-origin:392.0px 372px;"/>
    <rect class="bar" x="402.0" y="363.0" width="8" height="9.0" rx="1.5" fill="#1e90ff" style="animation-delay:1.08s; transform-origin:406.0px 372px;"/>
    <rect class="bar" x="416.0" y="366.0" width="8" height="6.0" rx="1.5" fill="#1e90ff" style="animation-delay:1.125s; transform-origin:420.0px 372px;"/>
    <rect class="bar" x="430.0" y="366.0" width="8" height="6.0" rx="1.5" fill="#1e90ff" style="animation-delay:1.17s; transform-origin:434.0px 372px;"/>
    <rect class="bar" x="444.0" y="344.9" width="8" height="27.1" rx="1.5" fill="#9370db" style="animation-delay:1.215s; transform-origin:448.0px 372px;"/>
    <rect class="bar" x="458.0" y="350.7" width="8" height="21.3" rx="1.5" fill="#9370db" style="animation-delay:1.26s; transform-origin:462.0px 372px;"/>
    <rect class="bar" x="472.0" y="345.2" width="8" height="26.8" rx="1.5" fill="#9370db" style="animation-delay:1.305s; transform-origin:476.0px 372px;"/>
    <rect class="bar" x="486.0" y="348.7" width="8" height="23.3" rx="1.5" fill="#9370db" style="animation-delay:1.35s; transform-origin:490.0px 372px;"/>
    <rect class="bar" x="500.0" y="357.7" width="8" height="14.3" rx="1.5" fill="#9370db" style="animation-delay:1.395s; transform-origin:504.0px 372px;"/>
    <rect class="bar" x="514.0" y="362.4" width="8" height="9.6" rx="1.5" fill="#9370db" style="animation-delay:1.44s; transform-origin:518.0px 372px;"/>
    <rect class="bar" x="528.0" y="366.0" width="8" height="6.0" rx="1.5" fill="#9370db" style="animation-delay:1.485s; transform-origin:532.0px 372px;"/>
    <rect class="bar" x="542.0" y="366.0" width="8" height="6.0" rx="1.5" fill="#9370db" style="animation-delay:1.53s; transform-origin:546.0px 372px;"/>
    <rect class="bar" x="556.0" y="365.2" width="8" height="6.8" rx="1.5" fill="#9370db" style="animation-delay:1.575s; transform-origin:560.0px 372px;"/>
    <rect class="bar" x="570.0" y="356.5" width="8" height="15.5" rx="1.5" fill="#9370db" style="animation-delay:1.62s; transform-origin:574.0px 372px;"/>
    <rect class="bar" x="584.0" y="352.5" width="8" height="19.5" rx="1.5" fill="#9370db" style="animation-delay:1.665s; transform-origin:588.0px 372px;"/>
    <rect class="bar" x="598.0" y="349.7" width="8" height="22.3" rx="1.5" fill="#9370db" style="animation-delay:1.71s; transform-origin:602.0px 372px;"/>
    <rect class="bar" x="612.0" y="344.4" width="8" height="27.6" rx="1.5" fill="#9370db" style="animation-delay:1.755s; transform-origin:616.0px 372px;"/>
    <rect class="bar" x="626.0" y="348.8" width="8" height="23.2" rx="1.5" fill="#9370db" style="animation-delay:1.8s; transform-origin:630.0px 372px;"/>
    <rect class="bar" x="640.0" y="366.0" width="8" height="6.0" rx="1.5" fill="#4169e1" style="animation-delay:1.845s; transform-origin:644.0px 372px;"/>
    <rect class="bar" x="654.0" y="365.3" width="8" height="6.7" rx="1.5" fill="#4169e1" style="animation-delay:1.89s; transform-origin:658.0px 372px;"/>
    <rect class="bar" x="668.0" y="360.7" width="8" height="11.3" rx="1.5" fill="#4169e1" style="animation-delay:1.935s; transform-origin:672.0px 372px;"/>
    <rect class="bar" x="682.0" y="358.0" width="8" height="14.0" rx="1.5" fill="#4169e1" style="animation-delay:1.98s; transform-origin:686.0px 372px;"/>
    <rect class="bar" x="696.0" y="348.7" width="8" height="23.3" rx="1.5" fill="#4169e1" style="animation-delay:2.025s; transform-origin:700.0px 372px;"/>
    <rect class="bar" x="710.0" y="345.7" width="8" height="26.3" rx="1.5" fill="#4169e1" style="animation-delay:2.07s; transform-origin:714.0px 372px;"/>
    <rect class="bar" x="724.0" y="340.6" width="8" height="31.4" rx="1.5" fill="#4169e1" style="animation-delay:2.115s; transform-origin:728.0px 372px;"/>
    <rect class="bar" x="738.0" y="346.9" width="8" height="25.1" rx="1.5" fill="#4169e1" style="animation-delay:2.16s; transform-origin:742.0px 372px;"/>
    <rect class="bar" x="752.0" y="357.9" width="8" height="14.1" rx="1.5" fill="#4169e1" style="animation-delay:2.205s; transform-origin:756.0px 372px;"/>
    <rect class="bar" x="766.0" y="359.3" width="8" height="12.7" rx="1.5" fill="#4169e1" style="animation-delay:2.25s; transform-origin:770.0px 372px;"/>
    <rect class="bar" x="780.0" y="366.0" width="8" height="6.0" rx="1.5" fill="#4169e1" style="animation-delay:2.295s; transform-origin:784.0px 372px;"/>
    <rect class="bar" x="794.0" y="366.0" width="8" height="6.0" rx="1.5" fill="#4169e1" style="animation-delay:2.34s; transform-origin:798.0px 372px;"/>
    <rect class="bar" x="808.0" y="363.1" width="8" height="8.9" rx="1.5" fill="#4169e1" style="animation-delay:2.385s; transform-origin:812.0px 372px;"/>
  <line x1="66" y1="372" x2="822" y2="372" stroke="#21262d" stroke-width="1"/>
 
</svg>
