<svg width="990" height="930" viewBox="0 0 990 930" xmlns="http://www.w3.org/2000/svg">
<defs>
<linearGradient id="bgGradS" x1="0" y1="0" x2="990" y2="930" gradientUnits="userSpaceOnUse">
  <stop offset="0%" stop-color="#0a0d13"/>
  <stop offset="100%" stop-color="#12161f"/>
</linearGradient>
<filter id="glowS" x="-80%" y="-80%" width="260%" height="260%">
  <feGaussianBlur stdDeviation="4.2" result="blur"/>
  <feMerge><feMergeNode in="blur"/><feMergeNode in="SourceGraphic"/></feMerge>
</filter>
<filter id="glowSoftS" x="-60%" y="-60%" width="220%" height="220%">
  <feGaussianBlur stdDeviation="7" result="blur"/>
  <feMerge><feMergeNode in="blur"/><feMergeNode in="SourceGraphic"/></feMerge>
</filter>


    <radialGradient id="cardGrad0" cx="82%" cy="50%" r="75%" gradientUnits="objectBoundingBox">
      <stop offset="0%" stop-color="#00d4ff" stop-opacity="0.16"/>
      <stop offset="55%" stop-color="#00d4ff" stop-opacity="0.04"/>
      <stop offset="100%" stop-color="#12161f" stop-opacity="0"/>
    </radialGradient>
    <clipPath id="cardClip0"><rect width="460" height="178" rx="16"/></clipPath>
    <path id="orbitPath0" d="M 315,89.0 a55,55 0 1,0 110,0 a55,55 0 1,0 -110,0" fill="none"/>
    

    <radialGradient id="cardGrad1" cx="82%" cy="50%" r="75%" gradientUnits="objectBoundingBox">
      <stop offset="0%" stop-color="#00e5a0" stop-opacity="0.16"/>
      <stop offset="55%" stop-color="#00e5a0" stop-opacity="0.04"/>
      <stop offset="100%" stop-color="#12161f" stop-opacity="0"/>
    </radialGradient>
    <clipPath id="cardClip1"><rect width="460" height="178" rx="16"/></clipPath>
    <path id="orbitPath1" d="M 315,89.0 a55,55 0 1,0 110,0 a55,55 0 1,0 -110,0" fill="none"/>
    

    <radialGradient id="cardGrad2" cx="82%" cy="50%" r="75%" gradientUnits="objectBoundingBox">
      <stop offset="0%" stop-color="#a3e635" stop-opacity="0.16"/>
      <stop offset="55%" stop-color="#a3e635" stop-opacity="0.04"/>
      <stop offset="100%" stop-color="#12161f" stop-opacity="0"/>
    </radialGradient>
    <clipPath id="cardClip2"><rect width="460" height="178" rx="16"/></clipPath>
    <path id="orbitPath2" d="M 315,89.0 a55,55 0 1,0 110,0 a55,55 0 1,0 -110,0" fill="none"/>
    

    <radialGradient id="cardGrad3" cx="82%" cy="50%" r="75%" gradientUnits="objectBoundingBox">
      <stop offset="0%" stop-color="#ffb020" stop-opacity="0.16"/>
      <stop offset="55%" stop-color="#ffb020" stop-opacity="0.04"/>
      <stop offset="100%" stop-color="#12161f" stop-opacity="0"/>
    </radialGradient>
    <clipPath id="cardClip3"><rect width="460" height="178" rx="16"/></clipPath>
    <path id="orbitPath3" d="M 315,89.0 a55,55 0 1,0 110,0 a55,55 0 1,0 -110,0" fill="none"/>
    

    <radialGradient id="cardGrad4" cx="82%" cy="50%" r="75%" gradientUnits="objectBoundingBox">
      <stop offset="0%" stop-color="#ff5d5d" stop-opacity="0.16"/>
      <stop offset="55%" stop-color="#ff5d5d" stop-opacity="0.04"/>
      <stop offset="100%" stop-color="#12161f" stop-opacity="0"/>
    </radialGradient>
    <clipPath id="cardClip4"><rect width="460" height="178" rx="16"/></clipPath>
    <path id="orbitPath4" d="M 315,89.0 a55,55 0 1,0 110,0 a55,55 0 1,0 -110,0" fill="none"/>
    

    <radialGradient id="cardGrad5" cx="82%" cy="50%" r="75%" gradientUnits="objectBoundingBox">
      <stop offset="0%" stop-color="#5b8dff" stop-opacity="0.16"/>
      <stop offset="55%" stop-color="#5b8dff" stop-opacity="0.04"/>
      <stop offset="100%" stop-color="#12161f" stop-opacity="0"/>
    </radialGradient>
    <clipPath id="cardClip5"><rect width="460" height="178" rx="16"/></clipPath>
    <path id="orbitPath5" d="M 315,89.0 a55,55 0 1,0 110,0 a55,55 0 1,0 -110,0" fill="none"/>
    

    <radialGradient id="cardGrad6" cx="82%" cy="50%" r="75%" gradientUnits="objectBoundingBox">
      <stop offset="0%" stop-color="#ff5cb3" stop-opacity="0.16"/>
      <stop offset="55%" stop-color="#ff5cb3" stop-opacity="0.04"/>
      <stop offset="100%" stop-color="#12161f" stop-opacity="0"/>
    </radialGradient>
    <clipPath id="cardClip6"><rect width="460" height="178" rx="16"/></clipPath>
    <path id="orbitPath6" d="M 315,89.0 a55,55 0 1,0 110,0 a55,55 0 1,0 -110,0" fill="none"/>
    

    <radialGradient id="cardGrad7" cx="82%" cy="50%" r="75%" gradientUnits="objectBoundingBox">
      <stop offset="0%" stop-color="#b985ff" stop-opacity="0.16"/>
      <stop offset="55%" stop-color="#b985ff" stop-opacity="0.04"/>
      <stop offset="100%" stop-color="#12161f" stop-opacity="0"/>
    </radialGradient>
    <clipPath id="cardClip7"><rect width="460" height="178" rx="16"/></clipPath>
    <path id="orbitPath7" d="M 315,89.0 a55,55 0 1,0 110,0 a55,55 0 1,0 -110,0" fill="none"/>
    </defs>
<style>
<![CDATA[

.card-bgS { fill: url(#bgGradS); }
.big-titleS { font-family: 'Segoe UI', Verdana, sans-serif; font-weight: 800; font-size: 28px; fill: #f0f6fc; letter-spacing: 1.5px; }
.big-subtitleS { font-family: 'Segoe UI', Verdana, sans-serif; font-size: 12px; fill: #8b949e; letter-spacing: 3px; }
.title-underlineS { stroke-dasharray: 280; stroke-dashoffset: 280; animation: sweepS 1.8s ease-out .2s forwards; }
@keyframes sweepS { to { stroke-dashoffset: 0; } }

.card-wrapS { animation: cardInS .7s cubic-bezier(.22,1,.36,1) backwards; }
@keyframes cardInS { 0% { transform: translateY(24px) scale(.94); opacity: 0; } 100% { transform: translateY(0) scale(1); opacity: 1; } }

.card-title { font-family: 'Segoe UI', Verdana, sans-serif; font-weight: 800; font-size: 15px; letter-spacing: 1px; }
.mood-textS { font-family: 'Segoe UI', Verdana, sans-serif; font-size: 10px; fill: #6e7681; }

.skill-rowS { animation: rowInS .5s ease backwards; }
@keyframes rowInS { 0% { opacity: 0; transform: translateX(-8px); } 100% { opacity: 1; transform: translateX(0); } }
.skill-textS { font-family: 'Segoe UI', Verdana, sans-serif; font-size: 12px; fill: #d5dbe3; }
.skill-dotS { animation: dotPulseS 2.4s ease-in-out infinite; }
@keyframes dotPulseS { 0%,100% { opacity: .55; r: 2.2; } 50% { opacity: 1; r: 3.1; } }

.accent-barS { animation: barGlowS 2.6s ease-in-out infinite; }
@keyframes barGlowS { 0%,100% { opacity: .55; } 50% { opacity: 1; } }

.ring-trackS { fill: none; stroke: #1c212b; stroke-width: 9; }
.ring-fillS { fill: none; stroke-width: 9; stroke-linecap: round; transform-origin: center; transform: rotate(-90deg);
  animation-timing-function: cubic-bezier(.22,1,.36,1); animation-fill-mode: forwards; }

.haloS { fill: none; stroke-width: 1.1; stroke-dasharray: 2.5 6; opacity: .4; transform-origin: center; animation: spinS 14s linear infinite; }
@keyframes spinS { to { transform: rotate(360deg); } }
.haloRevS { fill: none; stroke-width: 1; stroke-dasharray: 1.5 8; opacity: .25; transform-origin: center; animation: spinRevS 22s linear infinite; }
@keyframes spinRevS { to { transform: rotate(-360deg); } }

.icon-circS { animation: iconPulseS 2.4s ease-in-out infinite; }
@keyframes iconPulseS { 0%,100% { filter: drop-shadow(0 0 2px currentColor); } 50% { filter: drop-shadow(0 0 9px currentColor); } }
.icon-wrapS { animation: popInS .55s cubic-bezier(.34,1.56,.64,1) backwards; }
@keyframes popInS { 0% { transform: scale(0) rotate(-20deg); opacity: 0; } 100% { transform: scale(1) rotate(0); opacity: 1; } }
.icon-line { fill: none; stroke-linecap: round; stroke-linejoin: round; stroke-width: 1.8; }

.pct-textS { font-family: 'Segoe UI', Verdana, sans-serif; font-size: 19px; font-weight: 800; text-anchor: middle; opacity: 0;
  animation: fadeBounceS .7s cubic-bezier(.34,1.56,.64,1) forwards; }
@keyframes fadeBounceS { 0% { opacity: 0; transform: scale(.5); } 70% { opacity: 1; transform: scale(1.12); } 100% { opacity: 1; transform: scale(1); } }
.prof-labelS { font-family: 'Segoe UI', Verdana, sans-serif; font-size: 8.5px; letter-spacing: 1.5px; text-anchor: middle; fill: #6e7681; opacity: 0; animation: fadeInS .6s ease forwards; }
@keyframes fadeInS { to { opacity: 1; } }

.sparkS { filter: url(#glowS); }
.sheenS { animation: sheenSweepS 5s linear infinite; }
@keyframes sheenSweepS { 0% { transform: translateX(-30%); opacity: 0; } 8% { opacity: .8; } 45% { opacity: 0; } 100% { transform: translateX(130%); opacity: 0; } }

.corner-glowS { animation: cornerPulseS 4.5s ease-in-out infinite; filter: url(#glowSoftS); }
@keyframes cornerPulseS { 0%,100% { opacity: .05; } 50% { opacity: .13; } }

@keyframes orbitFadeIn0 { to { opacity: 1; } }
@keyframes ringDraw0 { to { stroke-dashoffset: 31.7; } }
@keyframes orbitFadeIn1 { to { opacity: 1; } }
@keyframes ringDraw1 { to { stroke-dashoffset: 47.5; } }
@keyframes orbitFadeIn2 { to { opacity: 1; } }
@keyframes ringDraw2 { to { stroke-dashoffset: 39.6; } }
@keyframes orbitFadeIn3 { to { opacity: 1; } }
@keyframes ringDraw3 { to { stroke-dashoffset: 58.1; } }
@keyframes orbitFadeIn4 { to { opacity: 1; } }
@keyframes ringDraw4 { to { stroke-dashoffset: 84.4; } }
@keyframes orbitFadeIn5 { to { opacity: 1; } }
@keyframes ringDraw5 { to { stroke-dashoffset: 26.4; } }
@keyframes orbitFadeIn6 { to { opacity: 1; } }
@keyframes ringDraw6 { to { stroke-dashoffset: 52.8; } }
@keyframes orbitFadeIn7 { to { opacity: 1; } }
@keyframes ringDraw7 { to { stroke-dashoffset: 68.6; } }
]]>
</style>


<g class="card-wrapS" style="animation-delay:0.00s" transform="translate(24,128)"><rect width="460" height="178" rx="16" fill="#11151d" stroke="#00d4ff" stroke-width="1.3" opacity="0.95"/><g clip-path="url(#cardClip0)"><rect width="460" height="178" fill="url(#cardGrad0)"/><circle class="corner-glowS" cx="390" cy="89.0" r="70" fill="#00d4ff" opacity="0.08" style="animation-delay:0.00s"/><rect class="sheenS" x="0" y="0" width="161" height="178" fill="#00d4ff" opacity="0.05" style="animation-delay:1.00s; mix-blend-mode:screen;"/></g><rect class="accent-barS" x="0" y="10" width="4" height="158" rx="2" fill="#00d4ff" style="animation-delay:0.00s"/><g transform="translate(34,34)"><circle class="haloS" r="20" stroke="#00d4ff" style="animation-delay:0.00s"/><circle class="icon-circS" r="15" fill="#00d4ff" opacity="0.14" style="color:#00d4ff; animation-delay:0.00s"/><g class="icon-wrapS" style="animation-delay:0.12s"><g class="icon-line" stroke="#00d4ff"><path d="M -7,-8 L -14,0 L -7,8"/><path d="M 7,-8 L 14,0 L 7,8"/><line x1="2" y1="-11" x2="-2" y2="11"/></g></g></g><text x="60" y="30" class="card-title" fill="#00d4ff">FRONTEND</text><text x="60" y="45" class="mood-textS">Fluent and fast</text><line x1="24" y1="58" x2="302" y2="58" stroke="#20252f" stroke-width="1"/><g class="skill-rowS" style="animation-delay:0.10s"><circle class="skill-dotS" cx="30" cy="74" r="2.4" fill="#00d4ff" style="animation-delay:0.10s"/><text x="40" y="78" class="skill-textS">HTML5</text></g><g class="skill-rowS" style="animation-delay:0.17s"><circle class="skill-dotS" cx="30" cy="93" r="2.4" fill="#00d4ff" style="animation-delay:0.17s"/><text x="40" y="97" class="skill-textS">CSS3</text></g><g class="skill-rowS" style="animation-delay:0.24s"><circle class="skill-dotS" cx="30" cy="112" r="2.4" fill="#00d4ff" style="animation-delay:0.24s"/><text x="40" y="116" class="skill-textS">JavaScript</text></g><g class="skill-rowS" style="animation-delay:0.31s"><circle class="skill-dotS" cx="30" cy="131" r="2.4" fill="#00d4ff" style="animation-delay:0.31s"/><text x="40" y="135" class="skill-textS">TypeScript</text></g><g class="skill-rowS" style="animation-delay:0.38s"><circle class="skill-dotS" cx="30" cy="150" r="2.4" fill="#00d4ff" style="animation-delay:0.38s"/><text x="40" y="154" class="skill-textS">React</text></g><g transform="translate(370,89.0)"><circle class="haloRevS" r="64" stroke="#00d4ff"/><circle class="ring-trackS" r="42"/><circle class="ring-fillS" r="42" stroke="#00d4ff" filter="url(#glowSoftS)" stroke-dasharray="263.9" stroke-dashoffset="263.9" style="animation-name:ringDraw0; animation-duration:1.7s; animation-delay:0.55s;"/><text class="pct-textS" y="4" fill="#00d4ff" style="animation-delay:1.45s">88%</text><text class="prof-labelS" y="24" style="animation-delay:1.60s">PROFICIENCY</text></g><circle class="sparkS" r="3.2" fill="#00d4ff" opacity="0" style="animation:orbitFadeIn0 .01s 2.15s forwards;"><animateMotion dur="4.00s" repeatCount="indefinite" begin="2.15s"><mpath href="#orbitPath0"/></animateMotion></circle></g>
<g class="card-wrapS" style="animation-delay:0.06s" transform="translate(506,128)"><rect width="460" height="178" rx="16" fill="#11151d" stroke="#00e5a0" stroke-width="1.3" opacity="0.95"/><g clip-path="url(#cardClip1)"><rect width="460" height="178" fill="url(#cardGrad1)"/><circle class="corner-glowS" cx="390" cy="89.0" r="70" fill="#00e5a0" opacity="0.08" style="animation-delay:0.06s"/><rect class="sheenS" x="0" y="0" width="161" height="178" fill="#00e5a0" opacity="0.05" style="animation-delay:1.06s; mix-blend-mode:screen;"/></g><rect class="accent-barS" x="0" y="10" width="4" height="158" rx="2" fill="#00e5a0" style="animation-delay:0.06s"/><g transform="translate(34,34)"><circle class="haloS" r="20" stroke="#00e5a0" style="animation-delay:0.06s"/><circle class="icon-circS" r="15" fill="#00e5a0" opacity="0.14" style="color:#00e5a0; animation-delay:0.06s"/><g class="icon-wrapS" style="animation-delay:0.18s"><g class="icon-line" stroke="#00e5a0"><rect x="-7" y="-13" width="14" height="26" rx="3"/><line x1="-3" y1="9" x2="3" y2="9"/></g></g></g><text x="60" y="30" class="card-title" fill="#00e5a0">MOBILE DEV</text><text x="60" y="45" class="mood-textS">Cross-platform</text><line x1="24" y1="58" x2="302" y2="58" stroke="#20252f" stroke-width="1"/><g class="skill-rowS" style="animation-delay:0.16s"><circle class="skill-dotS" cx="30" cy="74" r="2.4" fill="#00e5a0" style="animation-delay:0.16s"/><text x="40" y="78" class="skill-textS">Flutter</text></g><g class="skill-rowS" style="animation-delay:0.23s"><circle class="skill-dotS" cx="30" cy="93" r="2.4" fill="#00e5a0" style="animation-delay:0.23s"/><text x="40" y="97" class="skill-textS">Dart</text></g><g class="skill-rowS" style="animation-delay:0.30s"><circle class="skill-dotS" cx="30" cy="112" r="2.4" fill="#00e5a0" style="animation-delay:0.30s"/><text x="40" y="116" class="skill-textS">Android</text></g><g class="skill-rowS" style="animation-delay:0.37s"><circle class="skill-dotS" cx="30" cy="131" r="2.4" fill="#00e5a0" style="animation-delay:0.37s"/><text x="40" y="135" class="skill-textS">Java</text></g><g class="skill-rowS" style="animation-delay:0.44s"><circle class="skill-dotS" cx="30" cy="150" r="2.4" fill="#00e5a0" style="animation-delay:0.44s"/><text x="40" y="154" class="skill-textS">Responsive UI</text></g><g transform="translate(370,89.0)"><circle class="haloRevS" r="64" stroke="#00e5a0"/><circle class="ring-trackS" r="42"/><circle class="ring-fillS" r="42" stroke="#00e5a0" filter="url(#glowSoftS)" stroke-dasharray="263.9" stroke-dashoffset="263.9" style="animation-name:ringDraw1; animation-duration:1.7s; animation-delay:0.63s;"/><text class="pct-textS" y="4" fill="#00e5a0" style="animation-delay:1.53s">82%</text><text class="prof-labelS" y="24" style="animation-delay:1.68s">PROFICIENCY</text></g><circle class="sparkS" r="3.2" fill="#00e5a0" opacity="0" style="animation:orbitFadeIn1 .01s 2.23s forwards;"><animateMotion dur="4.15s" repeatCount="indefinite" begin="2.23s"><mpath href="#orbitPath1"/></animateMotion></circle></g>
<g class="card-wrapS" style="animation-delay:0.12s" transform="translate(24,328)"><rect width="460" height="178" rx="16" fill="#11151d" stroke="#a3e635" stroke-width="1.3" opacity="0.95"/><g clip-path="url(#cardClip2)"><rect width="460" height="178" fill="url(#cardGrad2)"/><circle class="corner-glowS" cx="390" cy="89.0" r="70" fill="#a3e635" opacity="0.08" style="animation-delay:0.12s"/><rect class="sheenS" x="0" y="0" width="161" height="178" fill="#a3e635" opacity="0.05" style="animation-delay:1.12s; mix-blend-mode:screen;"/></g><rect class="accent-barS" x="0" y="10" width="4" height="158" rx="2" fill="#a3e635" style="animation-delay:0.12s"/><g transform="translate(34,34)"><circle class="haloS" r="20" stroke="#a3e635" style="animation-delay:0.12s"/><circle class="icon-circS" r="15" fill="#a3e635" opacity="0.14" style="color:#a3e635; animation-delay:0.12s"/><g class="icon-wrapS" style="animation-delay:0.24s"><g class="icon-line" stroke="#a3e635"><rect x="-12" y="-11" width="24" height="9" rx="2"/><rect x="-12" y="2" width="24" height="9" rx="2"/><circle cx="-7" cy="-6.5" r="1.1" fill="#a3e635"/><circle cx="-7" cy="6.5" r="1.1" fill="#a3e635"/></g></g></g><text x="60" y="30" class="card-title" fill="#a3e635">BACKEND</text><text x="60" y="45" class="mood-textS">API-driven</text><line x1="24" y1="58" x2="302" y2="58" stroke="#20252f" stroke-width="1"/><g class="skill-rowS" style="animation-delay:0.22s"><circle class="skill-dotS" cx="30" cy="74" r="2.4" fill="#a3e635" style="animation-delay:0.22s"/><text x="40" y="78" class="skill-textS">Node.js</text></g><g class="skill-rowS" style="animation-delay:0.29s"><circle class="skill-dotS" cx="30" cy="93" r="2.4" fill="#a3e635" style="animation-delay:0.29s"/><text x="40" y="97" class="skill-textS">Express</text></g><g class="skill-rowS" style="animation-delay:0.36s"><circle class="skill-dotS" cx="30" cy="112" r="2.4" fill="#a3e635" style="animation-delay:0.36s"/><text x="40" y="116" class="skill-textS">REST APIs</text></g><g class="skill-rowS" style="animation-delay:0.43s"><circle class="skill-dotS" cx="30" cy="131" r="2.4" fill="#a3e635" style="animation-delay:0.43s"/><text x="40" y="135" class="skill-textS">Python</text></g><g class="skill-rowS" style="animation-delay:0.50s"><circle class="skill-dotS" cx="30" cy="150" r="2.4" fill="#a3e635" style="animation-delay:0.50s"/><text x="40" y="154" class="skill-textS">Auth + JWT</text></g><g transform="translate(370,89.0)"><circle class="haloRevS" r="64" stroke="#a3e635"/><circle class="ring-trackS" r="42"/><circle class="ring-fillS" r="42" stroke="#a3e635" filter="url(#glowSoftS)" stroke-dasharray="263.9" stroke-dashoffset="263.9" style="animation-name:ringDraw2; animation-duration:1.7s; animation-delay:0.71s;"/><text class="pct-textS" y="4" fill="#a3e635" style="animation-delay:1.61s">85%</text><text class="prof-labelS" y="24" style="animation-delay:1.76s">PROFICIENCY</text></g><circle class="sparkS" r="3.2" fill="#a3e635" opacity="0" style="animation:orbitFadeIn2 .01s 2.31s forwards;"><animateMotion dur="4.30s" repeatCount="indefinite" begin="2.31s"><mpath href="#orbitPath2"/></animateMotion></circle></g>
<g class="card-wrapS" style="animation-delay:0.18s" transform="translate(506,328)"><rect width="460" height="178" rx="16" fill="#11151d" stroke="#ffb020" stroke-width="1.3" opacity="0.95"/><g clip-path="url(#cardClip3)"><rect width="460" height="178" fill="url(#cardGrad3)"/><circle class="corner-glowS" cx="390" cy="89.0" r="70" fill="#ffb020" opacity="0.08" style="animation-delay:0.18s"/><rect class="sheenS" x="0" y="0" width="161" height="178" fill="#ffb020" opacity="0.05" style="animation-delay:1.18s; mix-blend-mode:screen;"/></g><rect class="accent-barS" x="0" y="10" width="4" height="158" rx="2" fill="#ffb020" style="animation-delay:0.18s"/><g transform="translate(34,34)"><circle class="haloS" r="20" stroke="#ffb020" style="animation-delay:0.18s"/><circle class="icon-circS" r="15" fill="#ffb020" opacity="0.14" style="color:#ffb020; animation-delay:0.18s"/><g class="icon-wrapS" style="animation-delay:0.30s"><g class="icon-line" stroke="#ffb020"><ellipse cx="0" cy="-9" rx="11" ry="4.2"/><path d="M -11,-9 L -11,9 A11,4.2 0 0 0 11,9 L 11,-9"/><path d="M -11,0 A11,4.2 0 0 0 11,0" fill="none"/></g></g></g><text x="60" y="30" class="card-title" fill="#ffb020">DATABASE</text><text x="60" y="45" class="mood-textS">Schema-savvy</text><line x1="24" y1="58" x2="302" y2="58" stroke="#20252f" stroke-width="1"/><g class="skill-rowS" style="animation-delay:0.28s"><circle class="skill-dotS" cx="30" cy="74" r="2.4" fill="#ffb020" style="animation-delay:0.28s"/><text x="40" y="78" class="skill-textS">PostgreSQL</text></g><g class="skill-rowS" style="animation-delay:0.35s"><circle class="skill-dotS" cx="30" cy="93" r="2.4" fill="#ffb020" style="animation-delay:0.35s"/><text x="40" y="97" class="skill-textS">MongoDB</text></g><g class="skill-rowS" style="animation-delay:0.42s"><circle class="skill-dotS" cx="30" cy="112" r="2.4" fill="#ffb020" style="animation-delay:0.42s"/><text x="40" y="116" class="skill-textS">Firebase</text></g><g class="skill-rowS" style="animation-delay:0.49s"><circle class="skill-dotS" cx="30" cy="131" r="2.4" fill="#ffb020" style="animation-delay:0.49s"/><text x="40" y="135" class="skill-textS">Redis</text></g><g class="skill-rowS" style="animation-delay:0.56s"><circle class="skill-dotS" cx="30" cy="150" r="2.4" fill="#ffb020" style="animation-delay:0.56s"/><text x="40" y="154" class="skill-textS">SQL</text></g><g transform="translate(370,89.0)"><circle class="haloRevS" r="64" stroke="#ffb020"/><circle class="ring-trackS" r="42"/><circle class="ring-fillS" r="42" stroke="#ffb020" filter="url(#glowSoftS)" stroke-dasharray="263.9" stroke-dashoffset="263.9" style="animation-name:ringDraw3; animation-duration:1.7s; animation-delay:0.79s;"/><text class="pct-textS" y="4" fill="#ffb020" style="animation-delay:1.69s">78%</text><text class="prof-labelS" y="24" style="animation-delay:1.84s">PROFICIENCY</text></g><circle class="sparkS" r="3.2" fill="#ffb020" opacity="0" style="animation:orbitFadeIn3 .01s 2.39s forwards;"><animateMotion dur="4.45s" repeatCount="indefinite" begin="2.39s"><mpath href="#orbitPath3"/></animateMotion></circle></g>
<g class="card-wrapS" style="animation-delay:0.24s" transform="translate(24,528)"><rect width="460" height="178" rx="16" fill="#11151d" stroke="#ff5d5d" stroke-width="1.3" opacity="0.95"/><g clip-path="url(#cardClip4)"><rect width="460" height="178" fill="url(#cardGrad4)"/><circle class="corner-glowS" cx="390" cy="89.0" r="70" fill="#ff5d5d" opacity="0.08" style="animation-delay:0.24s"/><rect class="sheenS" x="0" y="0" width="161" height="178" fill="#ff5d5d" opacity="0.05" style="animation-delay:1.24s; mix-blend-mode:screen;"/></g><rect class="accent-barS" x="0" y="10" width="4" height="158" rx="2" fill="#ff5d5d" style="animation-delay:0.24s"/><g transform="translate(34,34)"><circle class="haloS" r="20" stroke="#ff5d5d" style="animation-delay:0.24s"/><circle class="icon-circS" r="15" fill="#ff5d5d" opacity="0.14" style="color:#ff5d5d; animation-delay:0.24s"/><g class="icon-wrapS" style="animation-delay:0.36s"><g class="icon-line" stroke="#ff5d5d"><rect x="-9" y="-9" width="18" height="18" rx="2.5"/><rect x="-4" y="-4" width="8" height="8" rx="1"/><line x1="-9" y1="-5" x2="-13" y2="-5"/><line x1="-9" y1="5" x2="-13" y2="5"/><line x1="9" y1="-5" x2="13" y2="-5"/><line x1="9" y1="5" x2="13" y2="5"/><line x1="-5" y1="-9" x2="-5" y2="-13"/><line x1="5" y1="-9" x2="5" y2="-13"/><line x1="-5" y1="9" x2="-5" y2="13"/><line x1="5" y1="9" x2="5" y2="13"/></g></g></g><text x="60" y="30" class="card-title" fill="#ff5d5d">SYSTEMS</text><text x="60" y="45" class="mood-textS">Deep-diving</text><line x1="24" y1="58" x2="302" y2="58" stroke="#20252f" stroke-width="1"/><g class="skill-rowS" style="animation-delay:0.34s"><circle class="skill-dotS" cx="30" cy="74" r="2.4" fill="#ff5d5d" style="animation-delay:0.34s"/><text x="40" y="78" class="skill-textS">Rust</text></g><g class="skill-rowS" style="animation-delay:0.41s"><circle class="skill-dotS" cx="30" cy="93" r="2.4" fill="#ff5d5d" style="animation-delay:0.41s"/><text x="40" y="97" class="skill-textS">C</text></g><g class="skill-rowS" style="animation-delay:0.48s"><circle class="skill-dotS" cx="30" cy="112" r="2.4" fill="#ff5d5d" style="animation-delay:0.48s"/><text x="40" y="116" class="skill-textS">Linux</text></g><g class="skill-rowS" style="animation-delay:0.55s"><circle class="skill-dotS" cx="30" cy="131" r="2.4" fill="#ff5d5d" style="animation-delay:0.55s"/><text x="40" y="135" class="skill-textS">Memory Mgmt</text></g><g class="skill-rowS" style="animation-delay:0.62s"><circle class="skill-dotS" cx="30" cy="150" r="2.4" fill="#ff5d5d" style="animation-delay:0.62s"/><text x="40" y="154" class="skill-textS">Concurrency</text></g><g transform="translate(370,89.0)"><circle class="haloRevS" r="64" stroke="#ff5d5d"/><circle class="ring-trackS" r="42"/><circle class="ring-fillS" r="42" stroke="#ff5d5d" filter="url(#glowSoftS)" stroke-dasharray="263.9" stroke-dashoffset="263.9" style="animation-name:ringDraw4; animation-duration:1.7s; animation-delay:0.87s;"/><text class="pct-textS" y="4" fill="#ff5d5d" style="animation-delay:1.77s">68%</text><text class="prof-labelS" y="24" style="animation-delay:1.92s">PROFICIENCY</text></g><circle class="sparkS" r="3.2" fill="#ff5d5d" opacity="0" style="animation:orbitFadeIn4 .01s 2.47s forwards;"><animateMotion dur="4.60s" repeatCount="indefinite" begin="2.47s"><mpath href="#orbitPath4"/></animateMotion></circle></g>
<g class="card-wrapS" style="animation-delay:0.30s" transform="translate(506,528)"><rect width="460" height="178" rx="16" fill="#11151d" stroke="#5b8dff" stroke-width="1.3" opacity="0.95"/><g clip-path="url(#cardClip5)"><rect width="460" height="178" fill="url(#cardGrad5)"/><circle class="corner-glowS" cx="390" cy="89.0" r="70" fill="#5b8dff" opacity="0.08" style="animation-delay:0.30s"/><rect class="sheenS" x="0" y="0" width="161" height="178" fill="#5b8dff" opacity="0.05" style="animation-delay:1.30s; mix-blend-mode:screen;"/></g><rect class="accent-barS" x="0" y="10" width="4" height="158" rx="2" fill="#5b8dff" style="animation-delay:0.30s"/><g transform="translate(34,34)"><circle class="haloS" r="20" stroke="#5b8dff" style="animation-delay:0.30s"/><circle class="icon-circS" r="15" fill="#5b8dff" opacity="0.14" style="color:#5b8dff; animation-delay:0.30s"/><g class="icon-wrapS" style="animation-delay:0.42s"><g class="icon-line" stroke="#5b8dff"><rect x="-12" y="-10" width="24" height="20" rx="2.5"/><path d="M -7,-3 L -2,0 L -7,3"/><line x1="1" y1="4" x2="8" y2="4"/></g></g></g><text x="60" y="30" class="card-title" fill="#5b8dff">DEVOPS</text><text x="60" y="45" class="mood-textS">Ship it clean</text><line x1="24" y1="58" x2="302" y2="58" stroke="#20252f" stroke-width="1"/><g class="skill-rowS" style="animation-delay:0.40s"><circle class="skill-dotS" cx="30" cy="74" r="2.4" fill="#5b8dff" style="animation-delay:0.40s"/><text x="40" y="78" class="skill-textS">Git</text></g><g class="skill-rowS" style="animation-delay:0.47s"><circle class="skill-dotS" cx="30" cy="93" r="2.4" fill="#5b8dff" style="animation-delay:0.47s"/><text x="40" y="97" class="skill-textS">GitHub</text></g><g class="skill-rowS" style="animation-delay:0.54s"><circle class="skill-dotS" cx="30" cy="112" r="2.4" fill="#5b8dff" style="animation-delay:0.54s"/><text x="40" y="116" class="skill-textS">CI / CD</text></g><g class="skill-rowS" style="animation-delay:0.61s"><circle class="skill-dotS" cx="30" cy="131" r="2.4" fill="#5b8dff" style="animation-delay:0.61s"/><text x="40" y="135" class="skill-textS">Docker</text></g><g class="skill-rowS" style="animation-delay:0.68s"><circle class="skill-dotS" cx="30" cy="150" r="2.4" fill="#5b8dff" style="animation-delay:0.68s"/><text x="40" y="154" class="skill-textS">VS Code</text></g><g transform="translate(370,89.0)"><circle class="haloRevS" r="64" stroke="#5b8dff"/><circle class="ring-trackS" r="42"/><circle class="ring-fillS" r="42" stroke="#5b8dff" filter="url(#glowSoftS)" stroke-dasharray="263.9" stroke-dashoffset="263.9" style="animation-name:ringDraw5; animation-duration:1.7s; animation-delay:0.95s;"/><text class="pct-textS" y="4" fill="#5b8dff" style="animation-delay:1.85s">90%</text><text class="prof-labelS" y="24" style="animation-delay:2.00s">PROFICIENCY</text></g><circle class="sparkS" r="3.2" fill="#5b8dff" opacity="0" style="animation:orbitFadeIn5 .01s 2.55s forwards;"><animateMotion dur="4.75s" repeatCount="indefinite" begin="2.55s"><mpath href="#orbitPath5"/></animateMotion></circle></g>
<g class="card-wrapS" style="animation-delay:0.36s" transform="translate(24,728)"><rect width="460" height="178" rx="16" fill="#11151d" stroke="#ff5cb3" stroke-width="1.3" opacity="0.95"/><g clip-path="url(#cardClip6)"><rect width="460" height="178" fill="url(#cardGrad6)"/><circle class="corner-glowS" cx="390" cy="89.0" r="70" fill="#ff5cb3" opacity="0.08" style="animation-delay:0.36s"/><rect class="sheenS" x="0" y="0" width="161" height="178" fill="#ff5cb3" opacity="0.05" style="animation-delay:1.36s; mix-blend-mode:screen;"/></g><rect class="accent-barS" x="0" y="10" width="4" height="158" rx="2" fill="#ff5cb3" style="animation-delay:0.36s"/><g transform="translate(34,34)"><circle class="haloS" r="20" stroke="#ff5cb3" style="animation-delay:0.36s"/><circle class="icon-circS" r="15" fill="#ff5cb3" opacity="0.14" style="color:#ff5cb3; animation-delay:0.36s"/><g class="icon-wrapS" style="animation-delay:0.48s"><g class="icon-line" stroke="#ff5cb3"><path d="M -9,9 L -11,13 L -7,11 Z" fill="#ff5cb3"/><path d="M -7,11 L 6,-2 L 10,2 L -3,15 Z"/><line x1="3" y1="-5" x2="7" y2="-1"/></g></g></g><text x="60" y="30" class="card-title" fill="#ff5cb3">DESIGN</text><text x="60" y="45" class="mood-textS">Pixel-precise</text><line x1="24" y1="58" x2="302" y2="58" stroke="#20252f" stroke-width="1"/><g class="skill-rowS" style="animation-delay:0.46s"><circle class="skill-dotS" cx="30" cy="74" r="2.4" fill="#ff5cb3" style="animation-delay:0.46s"/><text x="40" y="78" class="skill-textS">Figma</text></g><g class="skill-rowS" style="animation-delay:0.53s"><circle class="skill-dotS" cx="30" cy="93" r="2.4" fill="#ff5cb3" style="animation-delay:0.53s"/><text x="40" y="97" class="skill-textS">UI / UX</text></g><g class="skill-rowS" style="animation-delay:0.60s"><circle class="skill-dotS" cx="30" cy="112" r="2.4" fill="#ff5cb3" style="animation-delay:0.60s"/><text x="40" y="116" class="skill-textS">Prototyping</text></g><g class="skill-rowS" style="animation-delay:0.67s"><circle class="skill-dotS" cx="30" cy="131" r="2.4" fill="#ff5cb3" style="animation-delay:0.67s"/><text x="40" y="135" class="skill-textS">Branding</text></g><g class="skill-rowS" style="animation-delay:0.74s"><circle class="skill-dotS" cx="30" cy="150" r="2.4" fill="#ff5cb3" style="animation-delay:0.74s"/><text x="40" y="154" class="skill-textS">Motion</text></g><g transform="translate(370,89.0)"><circle class="haloRevS" r="64" stroke="#ff5cb3"/><circle class="ring-trackS" r="42"/><circle class="ring-fillS" r="42" stroke="#ff5cb3" filter="url(#glowSoftS)" stroke-dasharray="263.9" stroke-dashoffset="263.9" style="animation-name:ringDraw6; animation-duration:1.7s; animation-delay:1.03s;"/><text class="pct-textS" y="4" fill="#ff5cb3" style="animation-delay:1.93s">80%</text><text class="prof-labelS" y="24" style="animation-delay:2.08s">PROFICIENCY</text></g><circle class="sparkS" r="3.2" fill="#ff5cb3" opacity="0" style="animation:orbitFadeIn6 .01s 2.63s forwards;"><animateMotion dur="4.90s" repeatCount="indefinite" begin="2.63s"><mpath href="#orbitPath6"/></animateMotion></circle></g>
<g class="card-wrapS" style="animation-delay:0.42s" transform="translate(506,728)"><rect width="460" height="178" rx="16" fill="#11151d" stroke="#b985ff" stroke-width="1.3" opacity="0.95"/><g clip-path="url(#cardClip7)"><rect width="460" height="178" fill="url(#cardGrad7)"/><circle class="corner-glowS" cx="390" cy="89.0" r="70" fill="#b985ff" opacity="0.08" style="animation-delay:0.42s"/><rect class="sheenS" x="0" y="0" width="161" height="178" fill="#b985ff" opacity="0.05" style="animation-delay:1.42s; mix-blend-mode:screen;"/></g><rect class="accent-barS" x="0" y="10" width="4" height="158" rx="2" fill="#b985ff" style="animation-delay:0.42s"/><g transform="translate(34,34)"><circle class="haloS" r="20" stroke="#b985ff" style="animation-delay:0.42s"/><circle class="icon-circS" r="15" fill="#b985ff" opacity="0.14" style="color:#b985ff; animation-delay:0.42s"/><g class="icon-wrapS" style="animation-delay:0.54s"><g class="icon-line" stroke="#b985ff"><path d="M 0,-12 L 11,-6 L 11,6 L 0,12 L -11,6 L -11,-6 Z"/><path d="M 0,-12 L 0,0 M 0,0 L 11,-6 M 0,0 L -11,-6 M 0,0 L 0,12"/></g></g></g><text x="60" y="30" class="card-title" fill="#b985ff">CREATIVE TECH</text><text x="60" y="45" class="mood-textS">Building Laudex</text><line x1="24" y1="58" x2="302" y2="58" stroke="#20252f" stroke-width="1"/><g class="skill-rowS" style="animation-delay:0.52s"><circle class="skill-dotS" cx="30" cy="74" r="2.4" fill="#b985ff" style="animation-delay:0.52s"/><text x="40" y="78" class="skill-textS">SVG Animation</text></g><g class="skill-rowS" style="animation-delay:0.59s"><circle class="skill-dotS" cx="30" cy="93" r="2.4" fill="#b985ff" style="animation-delay:0.59s"/><text x="40" y="97" class="skill-textS">Three.js / WebGL</text></g><g class="skill-rowS" style="animation-delay:0.66s"><circle class="skill-dotS" cx="30" cy="112" r="2.4" fill="#b985ff" style="animation-delay:0.66s"/><text x="40" y="116" class="skill-textS">Canvas API</text></g><g class="skill-rowS" style="animation-delay:0.73s"><circle class="skill-dotS" cx="30" cy="131" r="2.4" fill="#b985ff" style="animation-delay:0.73s"/><text x="40" y="135" class="skill-textS">Shaders</text></g><g class="skill-rowS" style="animation-delay:0.80s"><circle class="skill-dotS" cx="30" cy="150" r="2.4" fill="#b985ff" style="animation-delay:0.80s"/><text x="40" y="154" class="skill-textS">3D Web</text></g><g transform="translate(370,89.0)"><circle class="haloRevS" r="64" stroke="#b985ff"/><circle class="ring-trackS" r="42"/><circle class="ring-fillS" r="42" stroke="#b985ff" filter="url(#glowSoftS)" stroke-dasharray="263.9" stroke-dashoffset="263.9" style="animation-name:ringDraw7; animation-duration:1.7s; animation-delay:1.11s;"/><text class="pct-textS" y="4" fill="#b985ff" style="animation-delay:2.01s">74%</text><text class="prof-labelS" y="24" style="animation-delay:2.16s">PROFICIENCY</text></g><circle class="sparkS" r="3.2" fill="#b985ff" opacity="0" style="animation:orbitFadeIn7 .01s 2.71s forwards;"><animateMotion dur="5.05s" repeatCount="indefinite" begin="2.71s"><mpath href="#orbitPath7"/></animateMotion></circle></g>
</svg>
