<svg width="970" height="860" viewBox="0 0 970 860" xmlns="http://www.w3.org/2000/svg">

<defs>
  <linearGradient id="bgGrad2" x1="0" y1="0" x2="970" y2="860" gradientUnits="userSpaceOnUse">
    <stop offset="0%" stop-color="#0d1117"/>
    <stop offset="55%" stop-color="#12161f"/>
    <stop offset="100%" stop-color="#161b22"/>
  </linearGradient>

  <pattern id="grid2" width="40" height="40" patternUnits="userSpaceOnUse">
    <path d="M 40 0 L 0 0 0 40" fill="none" stroke="#ffffff" stroke-width="0.5" opacity="0.4"/>
  </pattern>

  <filter id="softGlow2" x="-60%" y="-60%" width="220%" height="220%">
    <feGaussianBlur stdDeviation="4" result="blur"/>
    <feMerge><feMergeNode in="blur"/><feMergeNode in="SourceGraphic"/></feMerge>
  </filter>

  <filter id="cardGlow" x="-30%" y="-30%" width="160%" height="160%">
    <feGaussianBlur stdDeviation="6" result="blur"/>
    <feMerge><feMergeNode in="blur"/><feMergeNode in="SourceGraphic"/></feMerge>
  </filter>
</defs>

<style>
<![CDATA[

.card-bg2 { fill: url(#bgGrad2); }
.grid2 { fill: url(#grid2); opacity: .05; }

.star2 { fill: #ffffff; opacity: .15; animation: twinkle2 3.5s ease-in-out infinite; }
@keyframes twinkle2 { 0%,100% { opacity:.08; } 50% { opacity:.6; } }

.title-underline2 { stroke-dasharray: 260; stroke-dashoffset: 260; animation: sweep2 2.2s ease-out .3s forwards; }
@keyframes sweep2 { to { stroke-dashoffset: 0; } }

.big-title { font-family: 'Segoe UI', Verdana, sans-serif; font-weight: 800; font-size: 27px; fill: #e6edf3; letter-spacing: 1.5px; }
.big-subtitle { font-family: 'Segoe UI', Verdana, sans-serif; font-size: 12px; fill: #8b949e; letter-spacing: 3px; }

.card-wrap { animation: cardIn .6s cubic-bezier(.22,1,.36,1) backwards; }
@keyframes cardIn { 0% { transform: translateY(18px) scale(.96); opacity: 0; } 100% { transform: translateY(0) scale(1); opacity: 1; } }

.card-panel { stroke-width: 1.4; opacity: .9; }
.card-panel-fill { fill: #12161f; }

.card-title { font-family: 'Segoe UI', Verdana, sans-serif; font-weight: 800; font-size: 14px; letter-spacing: 1.1px; }

.skill-row { animation: rowIn .45s ease backwards; }
@keyframes rowIn { 0% { opacity: 0; transform: translateX(-6px); } 100% { opacity: 1; transform: translateX(0); } }
.skill-text { font-family: 'Segoe UI', Verdana, sans-serif; font-size: 11.3px; fill: #c9d1d9; }
.skill-dot { animation: dotPulse 2.6s ease-in-out infinite; }
@keyframes dotPulse { 0%,100% { opacity: .5; r: 2.1; } 50% { opacity: 1; r: 2.8; } }

.ring-track { fill: none; stroke: #21262d; stroke-width: 7; }
.ring-fill { fill: none; stroke-width: 7; stroke-linecap: round; transform-origin: center; transform: rotate(-90deg);
  animation-timing-function: cubic-bezier(.22,1,.36,1); animation-fill-mode: forwards; }

.halo2 { fill: none; stroke-width: 1; stroke-dasharray: 2.5 5; opacity: .3; transform-origin: center; animation: spin2 16s linear infinite; }
@keyframes spin2 { to { transform: rotate(360deg); } }

.icon-wrap2 { animation: popIn2 .5s cubic-bezier(.34,1.56,.64,1) backwards; }
@keyframes popIn2 { 0% { transform: scale(0) rotate(-15deg); opacity: 0; } 100% { transform: scale(1) rotate(0); opacity: 1; } }
.icon-line { fill: none; stroke-linecap: round; stroke-linejoin: round; stroke-width: 1.7; }

.pct-text { font-family: 'Segoe UI', Verdana, sans-serif; font-size: 15px; font-weight: 800; text-anchor: middle; opacity: 0; animation: fadeIn2 .6s ease forwards; }
@keyframes fadeIn2 { to { opacity: 1; } }
.mood-text { font-family: 'Segoe UI', Verdana, sans-serif; font-size: 9.5px; text-anchor: middle; fill: #6e7681; opacity: 0; animation: fadeIn2 .6s ease forwards; }

.corner-glow { animation: cornerPulse 4s ease-in-out infinite; }
@keyframes cornerPulse { 0%,100% { opacity: .18; } 50% { opacity: .42; } }

@keyframes drawRing0 { to { stroke-dashoffset: 25.6; } }
@keyframes drawRing1 { to { stroke-dashoffset: 38.5; } }
@keyframes drawRing2 { to { stroke-dashoffset: 32.0; } }
@keyframes drawRing3 { to { stroke-dashoffset: 47.0; } }
@keyframes drawRing4 { to { stroke-dashoffset: 68.4; } }
@keyframes drawRing5 { to { stroke-dashoffset: 21.4; } }
@keyframes drawRing6 { to { stroke-dashoffset: 42.7; } }
@keyframes drawRing7 { to { stroke-dashoffset: 55.5; } }
]]>
</style>
<rect class="card-bg2" width="970" height="860" rx="20"/>
<rect class="grid2" width="970" height="860" rx="20"/>
<circle class="star2" cx="351" cy="19" r="1.1" style="animation-delay:0.13s"/>
<circle class="star2" cx="860" cy="44" r="0.9" style="animation-delay:1.52s"/>
<circle class="star2" cx="539" cy="23" r="0.8" style="animation-delay:1.13s"/>
<circle class="star2" cx="91" cy="25" r="0.9" style="animation-delay:1.1s"/>
<circle class="star2" cx="866" cy="46" r="0.9" style="animation-delay:0.58s"/>
<circle class="star2" cx="662" cy="47" r="1.5" style="animation-delay:1.5s"/>
<circle class="star2" cx="426" cy="13" r="1.5" style="animation-delay:0.12s"/>
<circle class="star2" cx="899" cy="18" r="1.0" style="animation-delay:0.38s"/>
<circle class="star2" cx="140" cy="46" r="1.0" style="animation-delay:2.12s"/>
<circle class="star2" cx="205" cy="16" r="1.2" style="animation-delay:1.66s"/>
<circle class="star2" cx="401" cy="16" r="1.2" style="animation-delay:0.16s"/>
<circle class="star2" cx="81" cy="49" r="0.9" style="animation-delay:1.77s"/>
<circle class="star2" cx="457" cy="59" r="1.0" style="animation-delay:1.52s"/>
<circle class="star2" cx="484" cy="33" r="1.0" style="animation-delay:2.07s"/>
<text x="485" y="42" text-anchor="middle" class="big-title">Skills Arsenal</text>
<line x1="325" y1="54" x2="645" y2="54" stroke="#30363d" stroke-width="2"/>
<line class="title-underline2" x1="325" y1="54" x2="645" y2="54" stroke="#79c0ff" stroke-width="2"/>
<text x="485" y="74" text-anchor="middle" class="big-subtitle">WHAT I BUILD WITH, ACROSS THE STACK</text>
<g class="card-wrap" style="animation-delay:0.00s" transform="translate(28,130)"><rect class="card-panel-fill card-panel" width="215" height="330" rx="14" stroke="#61dafb" filter="url(#cardGlow)" opacity="0.97"/><circle class="corner-glow" cx="197" cy="18" r="34" fill="#61dafb" opacity="0.15" style="animation-delay:0.00s"/><g transform="translate(28,34)"><circle class="halo2" r="17" stroke="#61dafb" style="animation-delay:0.00s"/><g class="icon-wrap2" style="animation-delay:0.10s"><g class="icon-line" stroke="#61dafb"><path d="M -7,-8 L -14,0 L -7,8"/><path d="M 7,-8 L 14,0 L 7,8"/><line x1="2" y1="-11" x2="-2" y2="11"/></g></g></g><text x="52" y="30" class="card-title" fill="#61dafb">FRONTEND</text><text x="52" y="45" class="mood-text" style="text-anchor:start; animation-delay:0.80s" fill="#6e7681">Fluent &amp; fast</text><line x1="18" y1="60" x2="197" y2="60" stroke="#21262d" stroke-width="1"/><g class="skill-row" style="animation-delay:0.08s"><circle class="skill-dot" cx="24" cy="80" r="2.3" fill="#61dafb" style="animation-delay:0.08s"/><text x="34" y="84" class="skill-text">HTML5</text></g><g class="skill-row" style="animation-delay:0.15s"><circle class="skill-dot" cx="24" cy="101" r="2.3" fill="#61dafb" style="animation-delay:0.15s"/><text x="34" y="105" class="skill-text">CSS3</text></g><g class="skill-row" style="animation-delay:0.22s"><circle class="skill-dot" cx="24" cy="122" r="2.3" fill="#61dafb" style="animation-delay:0.22s"/><text x="34" y="126" class="skill-text">JavaScript</text></g><g class="skill-row" style="animation-delay:0.29s"><circle class="skill-dot" cx="24" cy="143" r="2.3" fill="#61dafb" style="animation-delay:0.29s"/><text x="34" y="147" class="skill-text">TypeScript</text></g><g class="skill-row" style="animation-delay:0.36s"><circle class="skill-dot" cx="24" cy="164" r="2.3" fill="#61dafb" style="animation-delay:0.36s"/><text x="34" y="168" class="skill-text">React</text></g><g transform="translate(107,272)"><circle class="ring-track" r="34"/><circle class="ring-fill" r="34" stroke="#61dafb" filter="url(#softGlow2)" stroke-dasharray="213.6" stroke-dashoffset="213.6" style="animation-name:drawRing0; animation-duration:1.6s; animation-delay:0.50s;"/><text class="pct-text" y="5" fill="#61dafb" style="animation-delay:1.40s">88%</text></g></g>
<g class="card-wrap" style="animation-delay:0.05s" transform="translate(261,130)"><rect class="card-panel-fill card-panel" width="215" height="330" rx="14" stroke="#54c5f8" filter="url(#cardGlow)" opacity="0.97"/><circle class="corner-glow" cx="197" cy="18" r="34" fill="#54c5f8" opacity="0.15" style="animation-delay:0.05s"/><g transform="translate(28,34)"><circle class="halo2" r="17" stroke="#54c5f8" style="animation-delay:0.05s"/><g class="icon-wrap2" style="animation-delay:0.15s"><g class="icon-line" stroke="#54c5f8"><rect x="-7" y="-13" width="14" height="26" rx="3"/><line x1="-3" y1="9" x2="3" y2="9"/></g></g></g><text x="52" y="30" class="card-title" fill="#54c5f8">MOBILE DEV</text><text x="52" y="45" class="mood-text" style="text-anchor:start; animation-delay:0.86s" fill="#6e7681">Cross-platform</text><line x1="18" y1="60" x2="197" y2="60" stroke="#21262d" stroke-width="1"/><g class="skill-row" style="animation-delay:0.13s"><circle class="skill-dot" cx="24" cy="80" r="2.3" fill="#54c5f8" style="animation-delay:0.13s"/><text x="34" y="84" class="skill-text">Flutter</text></g><g class="skill-row" style="animation-delay:0.20s"><circle class="skill-dot" cx="24" cy="101" r="2.3" fill="#54c5f8" style="animation-delay:0.20s"/><text x="34" y="105" class="skill-text">Dart</text></g><g class="skill-row" style="animation-delay:0.27s"><circle class="skill-dot" cx="24" cy="122" r="2.3" fill="#54c5f8" style="animation-delay:0.27s"/><text x="34" y="126" class="skill-text">Android</text></g><g class="skill-row" style="animation-delay:0.34s"><circle class="skill-dot" cx="24" cy="143" r="2.3" fill="#54c5f8" style="animation-delay:0.34s"/><text x="34" y="147" class="skill-text">Java</text></g><g class="skill-row" style="animation-delay:0.41s"><circle class="skill-dot" cx="24" cy="164" r="2.3" fill="#54c5f8" style="animation-delay:0.41s"/><text x="34" y="168" class="skill-text">Responsive UI</text></g><g transform="translate(107,272)"><circle class="ring-track" r="34"/><circle class="ring-fill" r="34" stroke="#54c5f8" filter="url(#softGlow2)" stroke-dasharray="213.6" stroke-dashoffset="213.6" style="animation-name:drawRing1; animation-duration:1.6s; animation-delay:0.56s;"/><text class="pct-text" y="5" fill="#54c5f8" style="animation-delay:1.46s">82%</text></g></g>
<g class="card-wrap" style="animation-delay:0.10s" transform="translate(494,130)"><rect class="card-panel-fill card-panel" width="215" height="330" rx="14" stroke="#8cc84b" filter="url(#cardGlow)" opacity="0.97"/><circle class="corner-glow" cx="197" cy="18" r="34" fill="#8cc84b" opacity="0.15" style="animation-delay:0.10s"/><g transform="translate(28,34)"><circle class="halo2" r="17" stroke="#8cc84b" style="animation-delay:0.10s"/><g class="icon-wrap2" style="animation-delay:0.20s"><g class="icon-line" stroke="#8cc84b"><rect x="-12" y="-11" width="24" height="9" rx="2"/><rect x="-12" y="2" width="24" height="9" rx="2"/><circle cx="-7" cy="-6.5" r="1.1" fill="#8cc84b"/><circle cx="-7" cy="6.5" r="1.1" fill="#8cc84b"/></g></g></g><text x="52" y="30" class="card-title" fill="#8cc84b">BACKEND</text><text x="52" y="45" class="mood-text" style="text-anchor:start; animation-delay:0.92s" fill="#6e7681">API-driven</text><line x1="18" y1="60" x2="197" y2="60" stroke="#21262d" stroke-width="1"/><g class="skill-row" style="animation-delay:0.18s"><circle class="skill-dot" cx="24" cy="80" r="2.3" fill="#8cc84b" style="animation-delay:0.18s"/><text x="34" y="84" class="skill-text">Node.js</text></g><g class="skill-row" style="animation-delay:0.25s"><circle class="skill-dot" cx="24" cy="101" r="2.3" fill="#8cc84b" style="animation-delay:0.25s"/><text x="34" y="105" class="skill-text">Express</text></g><g class="skill-row" style="animation-delay:0.32s"><circle class="skill-dot" cx="24" cy="122" r="2.3" fill="#8cc84b" style="animation-delay:0.32s"/><text x="34" y="126" class="skill-text">REST APIs</text></g><g class="skill-row" style="animation-delay:0.39s"><circle class="skill-dot" cx="24" cy="143" r="2.3" fill="#8cc84b" style="animation-delay:0.39s"/><text x="34" y="147" class="skill-text">Python</text></g><g class="skill-row" style="animation-delay:0.46s"><circle class="skill-dot" cx="24" cy="164" r="2.3" fill="#8cc84b" style="animation-delay:0.46s"/><text x="34" y="168" class="skill-text">Auth + JWT</text></g><g transform="translate(107,272)"><circle class="ring-track" r="34"/><circle class="ring-fill" r="34" stroke="#8cc84b" filter="url(#softGlow2)" stroke-dasharray="213.6" stroke-dashoffset="213.6" style="animation-name:drawRing2; animation-duration:1.6s; animation-delay:0.62s;"/><text class="pct-text" y="5" fill="#8cc84b" style="animation-delay:1.52s">85%</text></g></g>
<g class="card-wrap" style="animation-delay:0.15s" transform="translate(727,130)"><rect class="card-panel-fill card-panel" width="215" height="330" rx="14" stroke="#f2a93e" filter="url(#cardGlow)" opacity="0.97"/><circle class="corner-glow" cx="197" cy="18" r="34" fill="#f2a93e" opacity="0.15" style="animation-delay:0.15s"/><g transform="translate(28,34)"><circle class="halo2" r="17" stroke="#f2a93e" style="animation-delay:0.15s"/><g class="icon-wrap2" style="animation-delay:0.25s"><g class="icon-line" stroke="#f2a93e"><ellipse cx="0" cy="-9" rx="11" ry="4.2"/><path d="M -11,-9 L -11,9 A11,4.2 0 0 0 11,9 L 11,-9"/><path d="M -11,0 A11,4.2 0 0 0 11,0" fill="none"/></g></g></g><text x="52" y="30" class="card-title" fill="#f2a93e">DATABASE</text><text x="52" y="45" class="mood-text" style="text-anchor:start; animation-delay:0.98s" fill="#6e7681">Schema-savvy</text><line x1="18" y1="60" x2="197" y2="60" stroke="#21262d" stroke-width="1"/><g class="skill-row" style="animation-delay:0.23s"><circle class="skill-dot" cx="24" cy="80" r="2.3" fill="#f2a93e" style="animation-delay:0.23s"/><text x="34" y="84" class="skill-text">PostgreSQL</text></g><g class="skill-row" style="animation-delay:0.30s"><circle class="skill-dot" cx="24" cy="101" r="2.3" fill="#f2a93e" style="animation-delay:0.30s"/><text x="34" y="105" class="skill-text">MongoDB</text></g><g class="skill-row" style="animation-delay:0.37s"><circle class="skill-dot" cx="24" cy="122" r="2.3" fill="#f2a93e" style="animation-delay:0.37s"/><text x="34" y="126" class="skill-text">Firebase</text></g><g class="skill-row" style="animation-delay:0.44s"><circle class="skill-dot" cx="24" cy="143" r="2.3" fill="#f2a93e" style="animation-delay:0.44s"/><text x="34" y="147" class="skill-text">Redis</text></g><g class="skill-row" style="animation-delay:0.51s"><circle class="skill-dot" cx="24" cy="164" r="2.3" fill="#f2a93e" style="animation-delay:0.51s"/><text x="34" y="168" class="skill-text">SQL</text></g><g transform="translate(107,272)"><circle class="ring-track" r="34"/><circle class="ring-fill" r="34" stroke="#f2a93e" filter="url(#softGlow2)" stroke-dasharray="213.6" stroke-dashoffset="213.6" style="animation-name:drawRing3; animation-duration:1.6s; animation-delay:0.68s;"/><text class="pct-text" y="5" fill="#f2a93e" style="animation-delay:1.58s">78%</text></g></g>
<g class="card-wrap" style="animation-delay:0.20s" transform="translate(28,484)"><rect class="card-panel-fill card-panel" width="215" height="330" rx="14" stroke="#de9161" filter="url(#cardGlow)" opacity="0.97"/><circle class="corner-glow" cx="197" cy="18" r="34" fill="#de9161" opacity="0.15" style="animation-delay:0.20s"/><g transform="translate(28,34)"><circle class="halo2" r="17" stroke="#de9161" style="animation-delay:0.20s"/><g class="icon-wrap2" style="animation-delay:0.30s"><g class="icon-line" stroke="#de9161"><rect x="-9" y="-9" width="18" height="18" rx="2.5"/><rect x="-4" y="-4" width="8" height="8" rx="1"/><line x1="-9" y1="-5" x2="-13" y2="-5"/><line x1="-9" y1="5" x2="-13" y2="5"/><line x1="9" y1="-5" x2="13" y2="-5"/><line x1="9" y1="5" x2="13" y2="5"/><line x1="-5" y1="-9" x2="-5" y2="-13"/><line x1="5" y1="-9" x2="5" y2="-13"/><line x1="-5" y1="9" x2="-5" y2="13"/><line x1="5" y1="9" x2="5" y2="13"/></g></g></g><text x="52" y="30" class="card-title" fill="#de9161">SYSTEMS</text><text x="52" y="45" class="mood-text" style="text-anchor:start; animation-delay:1.04s" fill="#6e7681">Deep-diving</text><line x1="18" y1="60" x2="197" y2="60" stroke="#21262d" stroke-width="1"/><g class="skill-row" style="animation-delay:0.28s"><circle class="skill-dot" cx="24" cy="80" r="2.3" fill="#de9161" style="animation-delay:0.28s"/><text x="34" y="84" class="skill-text">Rust</text></g><g class="skill-row" style="animation-delay:0.35s"><circle class="skill-dot" cx="24" cy="101" r="2.3" fill="#de9161" style="animation-delay:0.35s"/><text x="34" y="105" class="skill-text">C</text></g><g class="skill-row" style="animation-delay:0.42s"><circle class="skill-dot" cx="24" cy="122" r="2.3" fill="#de9161" style="animation-delay:0.42s"/><text x="34" y="126" class="skill-text">Linux</text></g><g class="skill-row" style="animation-delay:0.49s"><circle class="skill-dot" cx="24" cy="143" r="2.3" fill="#de9161" style="animation-delay:0.49s"/><text x="34" y="147" class="skill-text">Memory Mgmt</text></g><g class="skill-row" style="animation-delay:0.56s"><circle class="skill-dot" cx="24" cy="164" r="2.3" fill="#de9161" style="animation-delay:0.56s"/><text x="34" y="168" class="skill-text">Concurrency</text></g><g transform="translate(107,272)"><circle class="ring-track" r="34"/><circle class="ring-fill" r="34" stroke="#de9161" filter="url(#softGlow2)" stroke-dasharray="213.6" stroke-dashoffset="213.6" style="animation-name:drawRing4; animation-duration:1.6s; animation-delay:0.74s;"/><text class="pct-text" y="5" fill="#de9161" style="animation-delay:1.64s">68%</text></g></g>
<g class="card-wrap" style="animation-delay:0.25s" transform="translate(261,484)"><rect class="card-panel-fill card-panel" width="215" height="330" rx="14" stroke="#79c0ff" filter="url(#cardGlow)" opacity="0.97"/><circle class="corner-glow" cx="197" cy="18" r="34" fill="#79c0ff" opacity="0.15" style="animation-delay:0.25s"/><g transform="translate(28,34)"><circle class="halo2" r="17" stroke="#79c0ff" style="animation-delay:0.25s"/><g class="icon-wrap2" style="animation-delay:0.35s"><g class="icon-line" stroke="#79c0ff"><rect x="-12" y="-10" width="24" height="20" rx="2.5"/><path d="M -7,-3 L -2,0 L -7,3"/><line x1="1" y1="4" x2="8" y2="4"/></g></g></g><text x="52" y="30" class="card-title" fill="#79c0ff">DEVOPS</text><text x="52" y="45" class="mood-text" style="text-anchor:start; animation-delay:1.10s" fill="#6e7681">Ship it clean</text><line x1="18" y1="60" x2="197" y2="60" stroke="#21262d" stroke-width="1"/><g class="skill-row" style="animation-delay:0.33s"><circle class="skill-dot" cx="24" cy="80" r="2.3" fill="#79c0ff" style="animation-delay:0.33s"/><text x="34" y="84" class="skill-text">Git</text></g><g class="skill-row" style="animation-delay:0.40s"><circle class="skill-dot" cx="24" cy="101" r="2.3" fill="#79c0ff" style="animation-delay:0.40s"/><text x="34" y="105" class="skill-text">GitHub</text></g><g class="skill-row" style="animation-delay:0.47s"><circle class="skill-dot" cx="24" cy="122" r="2.3" fill="#79c0ff" style="animation-delay:0.47s"/><text x="34" y="126" class="skill-text">CI / CD</text></g><g class="skill-row" style="animation-delay:0.54s"><circle class="skill-dot" cx="24" cy="143" r="2.3" fill="#79c0ff" style="animation-delay:0.54s"/><text x="34" y="147" class="skill-text">Docker</text></g><g class="skill-row" style="animation-delay:0.61s"><circle class="skill-dot" cx="24" cy="164" r="2.3" fill="#79c0ff" style="animation-delay:0.61s"/><text x="34" y="168" class="skill-text">VS Code</text></g><g transform="translate(107,272)"><circle class="ring-track" r="34"/><circle class="ring-fill" r="34" stroke="#79c0ff" filter="url(#softGlow2)" stroke-dasharray="213.6" stroke-dashoffset="213.6" style="animation-name:drawRing5; animation-duration:1.6s; animation-delay:0.80s;"/><text class="pct-text" y="5" fill="#79c0ff" style="animation-delay:1.70s">90%</text></g></g>
<g class="card-wrap" style="animation-delay:0.30s" transform="translate(494,484)"><rect class="card-panel-fill card-panel" width="215" height="330" rx="14" stroke="#ff7ac6" filter="url(#cardGlow)" opacity="0.97"/><circle class="corner-glow" cx="197" cy="18" r="34" fill="#ff7ac6" opacity="0.15" style="animation-delay:0.30s"/><g transform="translate(28,34)"><circle class="halo2" r="17" stroke="#ff7ac6" style="animation-delay:0.30s"/><g class="icon-wrap2" style="animation-delay:0.40s"><g class="icon-line" stroke="#ff7ac6"><path d="M -9,9 L -11,13 L -7,11 Z" fill="#ff7ac6"/><path d="M -7,11 L 6,-2 L 10,2 L -3,15 Z"/><line x1="3" y1="-5" x2="7" y2="-1"/></g></g></g><text x="52" y="30" class="card-title" fill="#ff7ac6">DESIGN</text><text x="52" y="45" class="mood-text" style="text-anchor:start; animation-delay:1.16s" fill="#6e7681">Pixel-precise</text><line x1="18" y1="60" x2="197" y2="60" stroke="#21262d" stroke-width="1"/><g class="skill-row" style="animation-delay:0.38s"><circle class="skill-dot" cx="24" cy="80" r="2.3" fill="#ff7ac6" style="animation-delay:0.38s"/><text x="34" y="84" class="skill-text">Figma</text></g><g class="skill-row" style="animation-delay:0.45s"><circle class="skill-dot" cx="24" cy="101" r="2.3" fill="#ff7ac6" style="animation-delay:0.45s"/><text x="34" y="105" class="skill-text">UI / UX</text></g><g class="skill-row" style="animation-delay:0.52s"><circle class="skill-dot" cx="24" cy="122" r="2.3" fill="#ff7ac6" style="animation-delay:0.52s"/><text x="34" y="126" class="skill-text">Prototyping</text></g><g class="skill-row" style="animation-delay:0.59s"><circle class="skill-dot" cx="24" cy="143" r="2.3" fill="#ff7ac6" style="animation-delay:0.59s"/><text x="34" y="147" class="skill-text">Branding</text></g><g class="skill-row" style="animation-delay:0.66s"><circle class="skill-dot" cx="24" cy="164" r="2.3" fill="#ff7ac6" style="animation-delay:0.66s"/><text x="34" y="168" class="skill-text">Motion</text></g><g transform="translate(107,272)"><circle class="ring-track" r="34"/><circle class="ring-fill" r="34" stroke="#ff7ac6" filter="url(#softGlow2)" stroke-dasharray="213.6" stroke-dashoffset="213.6" style="animation-name:drawRing6; animation-duration:1.6s; animation-delay:0.86s;"/><text class="pct-text" y="5" fill="#ff7ac6" style="animation-delay:1.76s">80%</text></g></g>
<g class="card-wrap" style="animation-delay:0.35s" transform="translate(727,484)"><rect class="card-panel-fill card-panel" width="215" height="330" rx="14" stroke="#bd93f9" filter="url(#cardGlow)" opacity="0.97"/><circle class="corner-glow" cx="197" cy="18" r="34" fill="#bd93f9" opacity="0.15" style="animation-delay:0.35s"/><g transform="translate(28,34)"><circle class="halo2" r="17" stroke="#bd93f9" style="animation-delay:0.35s"/><g class="icon-wrap2" style="animation-delay:0.45s"><g class="icon-line" stroke="#bd93f9"><path d="M 0,-12 L 11,-6 L 11,6 L 0,12 L -11,6 L -11,-6 Z"/><path d="M 0,-12 L 0,0 M 0,0 L 11,-6 M 0,0 L -11,-6 M 0,0 L 0,12"/></g></g></g><text x="52" y="30" class="card-title" fill="#bd93f9">CREATIVE TECH</text><text x="52" y="45" class="mood-text" style="text-anchor:start; animation-delay:1.22s" fill="#6e7681">Building Laudex</text><line x1="18" y1="60" x2="197" y2="60" stroke="#21262d" stroke-width="1"/><g class="skill-row" style="animation-delay:0.43s"><circle class="skill-dot" cx="24" cy="80" r="2.3" fill="#bd93f9" style="animation-delay:0.43s"/><text x="34" y="84" class="skill-text">SVG Animation</text></g><g class="skill-row" style="animation-delay:0.50s"><circle class="skill-dot" cx="24" cy="101" r="2.3" fill="#bd93f9" style="animation-delay:0.50s"/><text x="34" y="105" class="skill-text">Three.js / WebGL</text></g><g class="skill-row" style="animation-delay:0.57s"><circle class="skill-dot" cx="24" cy="122" r="2.3" fill="#bd93f9" style="animation-delay:0.57s"/><text x="34" y="126" class="skill-text">Canvas API</text></g><g class="skill-row" style="animation-delay:0.64s"><circle class="skill-dot" cx="24" cy="143" r="2.3" fill="#bd93f9" style="animation-delay:0.64s"/><text x="34" y="147" class="skill-text">Shaders</text></g><g class="skill-row" style="animation-delay:0.71s"><circle class="skill-dot" cx="24" cy="164" r="2.3" fill="#bd93f9" style="animation-delay:0.71s"/><text x="34" y="168" class="skill-text">3D Web</text></g><g transform="translate(107,272)"><circle class="ring-track" r="34"/><circle class="ring-fill" r="34" stroke="#bd93f9" filter="url(#softGlow2)" stroke-dasharray="213.6" stroke-dashoffset="213.6" style="animation-name:drawRing7; animation-duration:1.6s; animation-delay:0.92s;"/><text class="pct-text" y="5" fill="#bd93f9" style="animation-delay:1.82s">74%</text></g></g>
</svg>
